{"glyphs":{"0":{"ha":926,"x_min":0,"x_max":0,"o":"m 464 972 b 57 478 147 972 57 774 b 464 -17 57 182 147 -17 b 869 478 781 -17 869 182 b 464 972 869 774 781 972 z m 464 785 b 594 547 561 785 594 715 l 594 410 b 464 171 594 242 561 171 b 331 410 367 171 331 242 l 331 547 b 464 785 331 715 367 785 z "},"1":{"ha":926,"x_min":0,"x_max":0,"o":"m 649 957 l 556 957 b 146 807 447 886 275 815 l 146 646 l 372 646 l 372 214 l 146 214 l 146 0 l 867 0 l 867 214 l 649 214 z "},"2":{"ha":926,"x_min":0,"x_max":0,"o":"m 481 972 b 71 649 207 972 71 844 b 72 618 71 639 71 629 l 319 618 l 319 646 b 454 776 319 721 368 776 b 574 675 539 776 574 728 b 201 314 574 585 418 507 b 68 67 124 244 68 171 l 68 0 l 860 0 l 860 235 l 442 235 b 849 685 639 376 849 478 b 481 972 849 858 707 972 z "},"3":{"ha":926,"x_min":0,"x_max":0,"o":"m 471 972 b 89 711 226 972 89 854 l 89 676 l 321 676 b 447 782 321 733 364 782 b 569 672 526 782 569 729 b 472 572 569 604 526 572 l 393 572 l 393 401 l 494 401 b 592 301 549 401 592 369 b 447 174 592 228 554 174 b 303 288 336 174 303 225 l 58 288 l 58 258 b 465 -17 58 107 186 -17 b 868 260 740 -17 861 107 b 701 496 868 376 807 463 l 701 501 b 840 713 783 532 840 617 b 471 972 840 854 707 972 z "},"4":{"ha":926,"x_min":0,"x_max":0,"o":"m 299 972 b 32 403 236 754 122 535 l 32 196 l 497 196 l 497 0 l 761 0 l 761 196 l 894 196 l 894 400 l 761 400 l 761 881 l 643 881 b 497 599 624 801 544 667 l 497 400 l 222 400 b 571 972 354 535 550 821 z "},"5":{"ha":926,"x_min":0,"x_max":0,"o":"m 797 956 l 136 956 l 96 421 l 315 390 b 449 460 331 408 356 460 b 594 317 543 460 594 399 b 447 175 594 236 544 175 b 299 308 349 175 299 236 l 54 308 b 476 -17 54 114 199 -17 b 868 313 717 -17 868 131 b 536 638 868 515 739 638 b 332 575 407 638 332 575 l 343 719 l 797 719 z "},"6":{"ha":926,"x_min":0,"x_max":0,"o":"m 471 972 b 57 454 193 972 57 825 b 471 -17 57 131 193 -17 b 876 317 718 -17 876 103 b 538 610 876 507 726 610 b 336 538 478 610 393 589 l 336 618 b 475 785 336 718 386 785 b 606 660 564 785 606 728 l 606 650 l 853 650 b 471 972 853 861 697 972 z m 472 443 b 608 304 560 443 608 392 b 471 171 608 217 558 171 b 336 307 383 171 336 219 b 472 443 336 394 385 443 z "},"7":{"ha":926,"x_min":0,"x_max":0,"o":"m 868 956 l 63 956 l 63 717 l 521 717 b 219 0 347 514 219 264 l 528 0 l 528 82 b 868 829 528 364 692 611 z "},"8":{"ha":926,"x_min":0,"x_max":0,"o":"m 461 972 b 92 690 256 972 92 872 b 208 489 92 583 142 536 l 208 483 b 57 263 117 432 57 376 b 461 -17 57 81 214 -17 b 869 263 708 -17 869 81 b 717 483 869 376 808 432 l 717 489 b 833 690 783 536 833 583 b 461 972 833 872 667 972 z m 461 399 b 593 285 531 399 593 360 b 461 171 593 210 536 171 b 333 285 386 171 333 210 b 461 399 333 360 392 399 z m 461 785 b 593 679 536 785 593 754 b 461 575 593 604 531 575 b 333 679 392 575 333 604 b 461 785 333 754 386 785 z "},"9":{"ha":926,"x_min":0,"x_max":0,"o":"m 456 972 b 50 639 208 972 50 853 b 389 346 50 449 200 346 b 590 418 449 346 533 367 l 590 338 b 451 171 590 238 540 171 b 321 296 363 171 321 228 l 321 306 l 74 306 b 456 -17 74 94 229 -17 b 869 501 733 -17 869 131 b 456 972 869 825 733 972 z m 454 785 b 590 646 542 785 590 733 b 453 513 590 558 540 513 b 318 649 365 513 318 561 b 454 785 318 736 367 785 z "},"\r":{"ha":463,"x_min":0,"x_max":0,"o":""}," ":{"ha":463,"x_min":0,"x_max":0,"o":""},"!":{"ha":463,"x_min":0,"x_max":0,"o":"m 397 956 l 65 956 l 142 342 l 318 342 z m 368 257 l 93 257 l 93 0 l 368 0 z "},"\"":{"ha":694,"x_min":0,"x_max":0,"o":"m 613 956 l 386 956 l 386 751 l 451 553 l 546 553 l 613 751 z m 308 956 l 82 956 l 82 751 l 147 553 l 243 553 l 308 751 z "},"#":{"ha":917,"x_min":0,"x_max":0,"o":"m 822 972 l 656 972 l 594 697 l 440 697 l 503 972 l 333 972 l 272 697 l 92 697 l 92 543 l 242 543 l 203 372 l 28 372 l 28 221 l 167 221 l 117 -15 l 283 -15 l 333 221 l 493 221 l 442 -15 l 604 -15 l 656 221 l 842 221 l 842 372 l 694 372 l 731 543 l 888 543 l 888 697 l 758 697 z m 567 542 l 526 371 l 368 371 l 406 542 z "},"$":{"ha":926,"x_min":0,"x_max":0,"o":"m 551 1050 l 394 1050 l 404 858 b 115 614 244 844 115 781 b 589 315 115 325 589 425 b 474 261 589 264 513 261 b 353 346 433 261 354 275 l 353 351 l 96 351 b 404 99 96 190 244 115 l 394 -93 l 551 -93 l 540 97 b 853 356 713 110 853 176 b 379 650 853 654 379 544 b 479 697 379 697 456 697 b 578 626 517 697 576 685 l 835 626 b 540 860 835 781 694 847 z "},"%":{"ha":1389,"x_min":0,"x_max":0,"o":"m 319 972 b 64 722 139 972 64 872 b 319 475 64 575 139 475 b 574 722 500 475 574 575 b 319 972 574 872 500 972 z m 319 867 b 401 746 381 867 401 815 l 401 701 b 319 581 401 632 381 581 b 236 701 260 581 236 632 l 236 746 b 319 867 236 815 260 867 z m 1058 481 b 803 231 878 481 803 381 b 1058 -17 803 83 878 -17 b 1313 231 1239 -17 1313 83 b 1058 481 1313 381 1239 481 z m 1058 375 b 1140 254 1119 375 1140 324 l 1140 210 b 1058 89 1140 140 1119 89 b 975 210 999 89 975 140 l 975 254 b 1058 375 975 324 999 375 z m 1054 954 l 903 954 l 321 0 l 475 0 z "},"&":{"ha":1235,"x_min":0,"x_max":0,"o":"m 579 972 b 132 699 282 972 132 846 b 271 501 132 608 193 531 l 271 496 b 104 267 167 463 104 379 b 588 -17 104 106 250 -17 b 1043 308 913 -17 1043 110 l 1043 401 l 1233 401 l 1233 572 l 794 572 l 794 303 b 586 179 794 235 749 179 b 386 301 440 179 386 231 b 483 401 386 369 429 401 l 658 401 l 658 572 l 514 572 b 415 660 463 572 415 599 b 597 776 415 718 471 776 b 794 676 732 776 794 731 l 1040 676 l 1040 711 b 579 972 1040 854 871 972 z "},"'":{"ha":386,"x_min":0,"x_max":0,"o":"m 306 956 l 79 956 l 79 751 l 144 553 l 239 553 l 306 751 z "},"(":{"ha":540,"x_min":0,"x_max":0,"o":"m 326 1024 b 76 400 167 853 76 628 b 326 -222 76 174 167 -51 l 493 -222 b 308 400 383 -51 308 203 b 493 1024 308 596 383 853 z "},")":{"ha":540,"x_min":0,"x_max":0,"o":"m 47 1024 b 232 400 157 853 232 596 b 47 -222 232 203 157 -51 l 214 -222 b 464 400 374 -51 464 174 b 214 1024 464 628 374 853 z "},"*":{"ha":772,"x_min":0,"x_max":0,"o":"m 450 956 l 321 956 l 338 786 l 197 885 l 132 774 l 288 701 l 132 631 l 197 518 l 338 617 l 321 447 l 450 447 l 433 617 l 574 518 l 639 631 l 483 701 l 639 774 l 574 885 l 433 788 z "},"+":{"ha":917,"x_min":0,"x_max":0,"o":"m 550 733 l 367 733 l 367 458 l 92 458 l 92 275 l 367 275 l 367 0 l 550 0 l 550 275 l 825 275 l 825 458 l 550 458 z "},",":{"ha":463,"x_min":0,"x_max":0,"o":"m 379 276 l 85 276 l 85 0 l 197 0 l 83 -254 l 233 -254 l 379 15 z "},"-":{"ha":463,"x_min":0,"x_max":0,"o":"m 408 492 l 54 492 l 54 272 l 408 272 z "},".":{"ha":463,"x_min":0,"x_max":0,"o":"m 379 276 l 85 276 l 85 0 l 379 0 z "},"/":{"ha":386,"x_min":0,"x_max":0,"o":"m 388 1022 l 219 1022 l -3 -67 l 167 -67 z "},":":{"ha":463,"x_min":0,"x_max":0,"o":"m 379 733 l 85 733 l 85 456 l 379 456 z m 379 276 l 85 276 l 85 0 l 379 0 z "},";":{"ha":463,"x_min":0,"x_max":0,"o":"m 379 276 l 85 276 l 85 0 l 197 0 l 83 -254 l 233 -254 l 379 15 z m 379 733 l 85 733 l 85 456 l 379 456 z "},"<":{"ha":917,"x_min":0,"x_max":0,"o":"m 822 743 l 93 461 l 93 263 l 822 -18 l 822 179 l 324 361 l 822 544 z "},"=":{"ha":917,"x_min":0,"x_max":0,"o":"m 825 615 l 92 615 l 92 432 l 825 432 z m 825 301 l 92 301 l 92 118 l 825 118 z "},">":{"ha":917,"x_min":0,"x_max":0,"o":"m 94 743 l 94 544 l 593 361 l 94 179 l 94 -18 l 824 263 l 824 461 z "},"?":{"ha":849,"x_min":0,"x_max":0,"o":"m 431 972 b 51 679 213 972 51 860 b 56 626 51 661 54 644 l 311 626 b 310 664 310 639 310 651 b 400 781 310 722 325 781 b 492 683 458 781 492 735 b 311 411 492 571 311 513 l 311 342 l 549 342 l 549 371 b 786 689 549 444 786 500 b 431 972 786 861 643 972 z m 569 257 l 294 257 l 294 0 l 569 0 z "},"@":{"ha":1028,"x_min":0,"x_max":0,"o":"m 529 972 b 28 369 244 972 28 810 b 486 -207 28 -32 203 -207 b 688 -169 539 -207 636 -192 l 688 -78 b 486 -122 643 -103 543 -122 b 122 368 239 -122 122 43 b 528 888 122 718 264 888 b 906 450 750 888 906 760 b 836 214 906 239 856 214 b 796 256 815 214 796 222 l 796 476 b 519 658 796 614 665 658 b 239 485 336 658 239 588 b 240 471 239 481 239 476 l 447 471 b 517 525 447 514 485 525 b 583 457 554 525 583 501 l 583 429 b 224 229 353 429 224 397 b 421 71 224 111 304 71 b 607 144 510 71 565 106 b 758 71 632 103 675 71 b 1000 449 869 71 1000 158 b 529 972 1000 821 799 972 z m 583 281 b 492 201 583 235 542 201 b 433 256 464 201 433 211 b 583 328 433 297 478 328 z "},"A":{"ha":1081,"x_min":0,"x_max":0,"o":"m 719 956 l 363 956 l 14 0 l 328 0 l 368 135 l 703 135 l 743 0 l 1068 0 z m 539 689 l 639 349 l 432 349 l 533 689 z "},"B":{"ha":1081,"x_min":0,"x_max":0,"o":"m 103 956 l 103 0 l 747 0 b 1025 254 901 0 1025 101 b 843 493 1025 407 942 471 l 843 499 b 1003 721 929 524 1003 582 b 739 956 1003 858 883 956 z m 643 386 b 714 311 683 386 714 353 l 714 297 b 643 222 714 254 683 222 l 410 222 l 410 386 z m 621 746 b 692 672 660 746 692 713 l 692 658 b 621 583 692 617 661 583 l 410 583 l 410 746 z "},"C":{"ha":1081,"x_min":0,"x_max":0,"o":"m 558 972 b 63 478 232 972 63 804 b 558 -17 63 151 232 -17 b 1018 388 850 -17 1018 125 l 735 388 b 554 213 735 278 675 213 b 376 433 429 213 376 303 l 376 522 b 557 743 376 653 426 743 b 725 563 667 743 725 672 l 1018 563 b 558 972 1018 829 836 972 z "},"D":{"ha":1081,"x_min":0,"x_max":0,"o":"m 103 956 l 103 0 l 517 0 b 1018 478 843 0 1018 151 b 517 956 1018 804 843 956 z m 511 726 b 704 519 646 726 704 650 l 704 436 b 511 229 704 306 646 229 l 410 229 l 410 726 z "},"E":{"ha":1003,"x_min":0,"x_max":0,"o":"m 939 0 l 939 229 l 410 229 l 410 375 l 854 375 l 854 594 l 410 594 l 410 726 l 929 726 l 929 956 l 103 956 l 103 0 z "},"F":{"ha":926,"x_min":0,"x_max":0,"o":"m 410 0 l 410 343 l 810 343 l 810 563 l 410 563 l 410 726 l 875 726 l 875 956 l 103 956 l 103 0 z "},"G":{"ha":1157,"x_min":0,"x_max":0,"o":"m 583 972 b 63 478 253 972 63 804 b 539 -17 63 151 221 -17 b 881 94 685 -17 794 21 l 911 0 l 1069 0 l 1069 533 l 560 533 l 560 339 l 776 339 b 596 213 776 263 693 213 b 376 433 450 213 376 294 l 376 522 b 596 743 376 661 450 743 b 776 610 693 743 776 692 l 1069 610 b 583 972 1069 850 851 972 z "},"H":{"ha":1157,"x_min":0,"x_max":0,"o":"m 1054 956 l 747 956 l 747 607 l 410 607 l 410 956 l 103 956 l 103 0 l 410 0 l 410 363 l 747 363 l 747 0 l 1054 0 z "},"I":{"ha":540,"x_min":0,"x_max":0,"o":"m 424 956 l 117 956 l 117 0 l 424 0 z "},"J":{"ha":926,"x_min":0,"x_max":0,"o":"m 824 956 l 517 956 l 517 333 b 418 213 517 244 483 213 b 319 333 353 213 319 244 l 319 344 l 32 344 l 32 332 b 428 -17 32 88 181 -17 b 824 332 675 -17 824 88 z "},"K":{"ha":1157,"x_min":0,"x_max":0,"o":"m 410 956 l 103 956 l 103 0 l 410 0 l 410 214 l 576 350 l 775 0 l 1138 0 l 788 563 l 1131 956 l 750 956 l 410 547 z "},"L":{"ha":926,"x_min":0,"x_max":0,"o":"m 900 0 l 900 244 l 410 244 l 410 956 l 103 956 l 103 0 z "},"M":{"ha":1311,"x_min":0,"x_max":0,"o":"m 1228 956 l 810 956 l 667 404 l 661 404 l 517 956 l 83 956 l 83 0 l 365 0 l 365 344 b 340 646 365 489 340 646 l 346 646 l 524 0 l 764 0 l 940 647 l 946 647 b 924 344 946 647 924 489 l 924 0 l 1228 0 z "},"N":{"ha":1157,"x_min":0,"x_max":0,"o":"m 1054 956 l 772 956 l 772 485 l 371 956 l 103 956 l 103 0 l 385 0 l 385 464 l 786 0 l 1054 0 z "},"O":{"ha":1157,"x_min":0,"x_max":0,"o":"m 578 972 b 63 478 251 972 63 804 b 578 -17 63 151 251 -17 b 1094 478 904 -17 1094 151 b 578 972 1094 804 904 972 z m 578 743 b 781 522 713 743 781 653 l 781 433 b 578 213 781 303 713 213 b 376 433 443 213 376 303 l 376 522 b 578 743 376 653 443 743 z "},"P":{"ha":1003,"x_min":0,"x_max":0,"o":"m 103 956 l 103 0 l 410 0 l 410 308 l 639 308 b 944 624 819 308 944 443 l 944 642 b 639 956 944 822 819 956 z m 536 729 b 633 636 603 729 633 693 l 633 625 b 536 532 633 568 601 532 l 410 532 l 410 729 z "},"Q":{"ha":1157,"x_min":0,"x_max":0,"o":"m 63 478 b 564 -17 63 156 246 -11 l 711 -182 l 1076 -182 l 858 39 b 1094 478 1010 114 1094 261 b 578 972 1094 804 904 972 b 63 478 251 972 63 804 z m 781 433 b 578 213 781 303 713 213 b 376 433 443 213 376 303 l 376 522 b 578 743 376 653 443 743 b 781 522 713 743 781 653 z "},"R":{"ha":1081,"x_min":0,"x_max":0,"o":"m 1010 663 b 688 956 1010 818 900 956 l 103 956 l 103 0 l 410 0 l 410 349 l 524 349 l 693 0 l 1038 0 l 825 400 b 1010 663 949 446 1010 551 z m 697 650 b 611 561 697 599 658 561 l 410 561 l 410 738 l 611 738 b 697 650 658 738 697 701 z "},"S":{"ha":1003,"x_min":0,"x_max":0,"o":"m 504 972 b 75 667 278 972 75 889 b 639 267 75 294 639 404 b 504 203 639 207 560 203 b 350 324 410 203 350 221 l 60 324 b 532 -17 60 51 264 -17 b 953 317 772 -17 953 79 b 389 701 946 671 389 558 b 515 764 389 735 431 764 b 639 667 604 764 639 717 l 639 661 l 926 661 l 926 678 b 504 972 922 882 735 972 z "},"T":{"ha":1003,"x_min":0,"x_max":0,"o":"m 965 956 l 32 956 l 32 711 l 346 711 l 346 0 l 653 0 l 653 711 l 965 711 z "},"U":{"ha":1157,"x_min":0,"x_max":0,"o":"m 1054 956 l 747 956 l 747 389 b 578 213 747 286 690 213 b 410 389 465 213 410 286 l 410 956 l 103 956 l 103 385 b 579 -17 103 121 279 -17 b 1054 385 879 -17 1054 121 z "},"V":{"ha":1081,"x_min":0,"x_max":0,"o":"m 1056 956 l 742 956 l 549 317 l 543 317 l 351 956 l 24 956 l 363 0 l 718 0 z "},"W":{"ha":1389,"x_min":0,"x_max":0,"o":"m 1382 956 l 1076 956 l 974 414 l 968 414 l 853 956 l 550 956 l 442 414 l 436 414 l 326 956 l 7 956 l 231 0 l 568 0 l 692 582 l 697 582 l 821 0 l 1158 0 z "},"X":{"ha":1081,"x_min":0,"x_max":0,"o":"m 1049 956 l 706 956 l 560 711 l 554 711 l 410 956 l 39 956 l 347 506 l 6 0 l 350 0 l 526 297 l 532 297 l 708 0 l 1081 0 l 739 504 z "},"Y":{"ha":1081,"x_min":0,"x_max":0,"o":"m 1069 956 l 735 956 l 551 638 l 546 638 l 363 956 l 10 956 l 389 371 l 389 0 l 696 0 l 696 371 z "},"Z":{"ha":1003,"x_min":0,"x_max":0,"o":"m 949 956 l 67 956 l 67 726 l 476 726 l 33 99 l 33 0 l 960 0 l 960 229 l 506 229 l 949 857 z "},"[":{"ha":540,"x_min":0,"x_max":0,"o":"m 471 1024 l 92 1024 l 92 -222 l 471 -222 l 471 -79 l 313 -79 l 313 881 l 471 881 z "},"\\":{"ha":386,"x_min":0,"x_max":0,"o":"m 165 1022 l -3 1022 l 218 -67 l 388 -67 z "},"]":{"ha":540,"x_min":0,"x_max":0,"o":"m 471 1024 l 92 1024 l 92 881 l 250 881 l 250 -79 l 92 -79 l 92 -222 l 471 -222 z "},"^":{"ha":917,"x_min":0,"x_max":0,"o":"m 557 956 l 358 956 l 76 468 l 276 468 l 460 763 l 642 468 l 839 468 z "},"_":{"ha":694,"x_min":0,"x_max":0,"o":"m 694 -89 l 0 -89 l 0 -175 l 694 -175 z "},"`":{"ha":463,"x_min":0,"x_max":0,"o":"m 303 1007 l 35 1007 l 32 1001 l 254 822 l 431 822 z "},"a":{"ha":926,"x_min":0,"x_max":0,"o":"m 446 750 b 63 524 194 750 63 658 b 64 504 63 517 63 511 l 336 504 l 336 510 b 442 574 336 558 393 574 b 549 486 501 574 549 546 l 549 450 b 42 189 228 450 42 408 b 300 -17 42 36 147 -17 b 571 75 428 -17 510 26 b 775 -17 596 19 664 -17 b 919 11 868 -17 919 11 l 919 171 l 869 171 b 825 225 839 171 825 194 l 825 511 b 446 750 825 692 647 750 z m 549 257 b 413 156 549 197 483 156 b 318 225 365 156 318 168 b 549 319 318 279 385 319 z "},"b":{"ha":926,"x_min":0,"x_max":0,"o":"m 361 1007 l 85 1007 l 85 0 l 310 0 l 333 104 b 567 -17 388 22 468 -17 b 876 368 761 -17 876 110 b 567 750 876 624 761 750 b 361 665 483 750 414 722 z m 481 546 b 600 403 567 546 600 489 l 600 329 b 481 188 600 243 567 188 b 358 343 394 188 358 257 l 358 389 b 481 546 358 475 394 546 z "},"c":{"ha":926,"x_min":0,"x_max":0,"o":"m 463 750 b 50 367 213 750 50 624 b 463 -17 50 110 213 -17 b 867 299 686 -17 867 75 l 610 299 b 468 171 610 208 558 171 b 326 326 367 171 326 229 l 326 406 b 463 563 326 503 365 563 b 599 438 549 563 599 524 l 867 438 b 463 750 867 661 686 750 z "},"d":{"ha":926,"x_min":0,"x_max":0,"o":"m 842 1007 l 565 1007 l 565 665 b 360 750 513 722 442 750 b 50 368 165 750 50 624 b 360 -17 50 110 165 -17 b 593 104 458 -17 539 22 l 617 0 l 842 0 z m 446 546 b 568 389 532 546 568 475 l 568 343 b 446 188 568 257 532 188 b 326 329 360 188 326 243 l 326 403 b 446 546 326 489 360 546 z "},"e":{"ha":926,"x_min":0,"x_max":0,"o":"m 463 750 b 50 367 213 750 50 624 b 479 -17 50 103 215 -17 b 876 267 743 -17 876 92 l 608 267 b 474 160 608 207 572 160 b 326 319 368 160 326 218 l 876 319 l 876 367 b 463 750 876 631 726 750 z m 474 574 b 597 450 551 574 597 526 l 328 450 b 474 574 338 526 381 574 z "},"f":{"ha":540,"x_min":0,"x_max":0,"o":"m 382 1024 b 114 764 224 1024 114 964 l 114 733 l 11 733 l 11 546 l 114 546 l 114 0 l 390 0 l 390 546 l 532 546 l 532 733 l 390 733 l 390 763 b 468 836 390 814 407 836 l 532 836 l 532 999 b 382 1024 494 1013 422 1024 z "},"g":{"ha":926,"x_min":0,"x_max":0,"o":"m 681 871 b 572 742 681 871 682 810 b 451 750 542 747 507 750 b 74 513 246 750 74 694 b 192 338 74 442 125 381 b 51 181 114 318 51 254 b 124 51 51 128 79 82 b 7 -112 63 24 7 -36 b 192 -292 7 -214 90 -292 l 600 -292 b 908 -40 764 -292 908 -204 b 661 194 908 96 831 194 l 411 194 b 324 238 340 194 324 214 b 411 278 324 261 347 278 l 517 278 b 825 514 681 278 825 350 b 739 672 825 575 793 632 b 908 871 844 700 908 751 z m 558 0 b 632 -68 599 0 632 -25 b 558 -137 632 -111 599 -137 l 342 -137 b 269 -67 301 -137 269 -110 b 342 0 269 -24 301 0 z m 449 606 b 556 514 514 606 556 576 b 449 422 556 451 514 422 b 344 514 383 422 344 451 b 449 606 344 576 390 606 z "},"h":{"ha":926,"x_min":0,"x_max":0,"o":"m 360 1007 l 83 1007 l 83 0 l 360 0 l 360 431 b 475 546 360 493 406 546 b 568 442 536 546 568 503 l 568 0 l 844 0 l 844 475 b 589 750 844 649 763 750 b 360 657 501 750 418 715 z "},"i":{"ha":463,"x_min":0,"x_max":0,"o":"m 369 733 l 93 733 l 93 0 l 369 0 z m 369 1007 l 93 1007 l 93 819 l 369 819 z "},"j":{"ha":463,"x_min":0,"x_max":0,"o":"m 369 733 l 93 733 l 93 -12 b 15 -101 93 -69 71 -101 l -57 -101 l -57 -267 b 115 -292 -14 -282 71 -292 b 369 -40 293 -292 369 -218 z m 369 1007 l 93 1007 l 93 819 l 369 819 z "},"k":{"ha":926,"x_min":0,"x_max":0,"o":"m 360 1008 l 83 1008 l 83 0 l 360 0 l 360 158 l 456 251 l 610 0 l 924 0 l 646 438 l 917 733 l 594 733 l 360 453 z "},"l":{"ha":463,"x_min":0,"x_max":0,"o":"m 369 1007 l 93 1007 l 93 0 l 369 0 z "},"m":{"ha":1389,"x_min":0,"x_max":0,"o":"m 1057 750 b 806 624 958 750 863 700 b 583 750 769 704 696 750 b 328 624 482 750 383 701 l 310 733 l 83 733 l 83 0 l 360 0 l 360 431 b 469 546 360 493 403 546 b 557 442 526 546 557 503 l 557 0 l 833 0 l 833 431 b 943 546 833 493 876 546 b 1031 442 1000 546 1031 503 l 1031 0 l 1307 0 l 1307 475 b 1057 750 1307 649 1226 750 z "},"n":{"ha":926,"x_min":0,"x_max":0,"o":"m 589 750 b 328 622 485 750 385 700 l 310 733 l 83 733 l 83 0 l 360 0 l 360 431 b 475 546 360 493 406 546 b 568 442 536 546 568 503 l 568 0 l 844 0 l 844 475 b 589 750 844 649 763 750 z "},"o":{"ha":926,"x_min":0,"x_max":0,"o":"m 463 750 b 50 367 213 750 50 624 b 463 -17 50 110 213 -17 b 876 367 713 -17 876 110 b 463 750 876 624 713 750 z m 463 563 b 600 406 560 563 600 503 l 600 326 b 463 171 600 229 560 171 b 326 326 365 171 326 229 l 326 406 b 463 563 326 503 365 563 z "},"p":{"ha":926,"x_min":0,"x_max":0,"o":"m 567 750 b 333 629 468 750 388 711 l 310 733 l 85 733 l 85 -274 l 361 -274 l 361 67 b 567 -17 414 10 483 -17 b 876 365 761 -17 876 110 b 567 750 876 624 761 750 z m 481 546 b 600 404 567 546 600 490 l 600 331 b 481 188 600 244 567 188 b 358 344 394 188 358 258 l 358 390 b 481 546 358 476 394 546 z "},"q":{"ha":926,"x_min":0,"x_max":0,"o":"m 360 750 b 50 365 165 750 50 624 b 360 -17 50 110 165 -17 b 565 67 442 -17 513 10 l 565 -274 l 842 -274 l 842 733 l 617 733 l 593 629 b 360 750 539 711 458 750 z m 446 546 b 568 390 532 546 568 476 l 568 344 b 446 188 568 258 532 188 b 326 331 360 188 326 244 l 326 404 b 446 546 326 490 360 546 z "},"r":{"ha":617,"x_min":0,"x_max":0,"o":"m 529 751 b 328 622 442 751 363 710 l 310 733 l 83 733 l 83 0 l 360 0 l 360 326 b 522 503 360 438 403 503 l 611 503 l 611 735 b 529 751 611 735 581 751 z "},"s":{"ha":849,"x_min":0,"x_max":0,"o":"m 432 750 b 64 501 239 750 64 694 b 538 203 64 213 538 313 b 422 149 538 151 461 149 b 301 233 382 149 303 163 l 301 239 l 44 239 b 422 -17 44 56 239 -17 b 801 243 624 -17 801 42 b 328 538 801 542 328 432 b 428 585 328 585 404 585 b 490 571 447 585 471 582 b 526 514 511 561 526 543 l 783 514 b 432 750 783 688 606 750 z "},"t":{"ha":617,"x_min":0,"x_max":0,"o":"m 417 956 l 211 956 l 151 733 l 38 733 l 38 546 l 140 546 l 140 179 b 394 -17 140 29 244 -17 b 572 8 443 -17 526 -7 l 572 171 l 494 171 b 417 267 432 171 417 204 l 417 546 l 572 546 l 572 733 l 417 733 z "},"u":{"ha":926,"x_min":0,"x_max":0,"o":"m 842 733 l 565 733 l 565 303 b 450 188 565 240 519 188 b 357 292 389 188 357 231 l 357 733 l 81 733 l 81 258 b 336 -17 81 85 163 -17 b 597 111 440 -17 540 32 l 615 0 l 842 0 z "},"v":{"ha":849,"x_min":0,"x_max":0,"o":"m 849 733 l 576 733 l 442 276 l 432 276 l 297 733 l 0 733 l 278 0 l 568 0 z "},"w":{"ha":1311,"x_min":0,"x_max":0,"o":"m 1311 733 l 1042 733 l 929 300 l 919 300 l 808 733 l 533 733 l 418 300 l 408 300 l 297 733 l 0 733 l 268 0 l 538 0 l 653 408 l 658 408 l 772 0 l 1042 0 z "},"x":{"ha":926,"x_min":0,"x_max":0,"o":"m 903 733 l 597 733 l 481 539 l 475 539 l 358 733 l 33 733 l 288 389 l 6 0 l 313 0 l 453 231 l 458 231 l 597 0 l 919 0 l 644 382 z "},"y":{"ha":849,"x_min":0,"x_max":0,"o":"m 849 733 l 576 733 l 447 246 l 438 246 l 297 733 l 0 733 l 292 0 b 168 -101 285 -36 265 -101 l 57 -101 l 57 -267 b 217 -292 92 -279 150 -292 b 588 22 431 -292 521 -160 z "},"z":{"ha":772,"x_min":0,"x_max":0,"o":"m 731 733 l 44 733 l 44 546 l 336 546 l 28 90 l 28 0 l 743 0 l 743 188 l 419 188 l 731 647 z "},"{":{"ha":540,"x_min":0,"x_max":0,"o":"m 485 1024 l 358 1024 b 163 868 264 1024 163 975 l 163 536 b 42 457 163 481 97 457 l 42 347 b 163 271 104 347 163 326 l 163 -67 b 358 -222 163 -174 264 -222 l 485 -222 l 485 -86 b 379 -28 444 -86 382 -81 l 365 253 b 225 396 361 343 318 396 l 225 408 b 365 551 318 408 361 461 l 379 831 b 485 888 382 882 446 888 z "},"|":{"ha":386,"x_min":0,"x_max":0,"o":"m 279 1008 l 107 1008 l 107 -293 l 279 -293 z "},"}":{"ha":540,"x_min":0,"x_max":0,"o":"m 56 1024 l 56 888 b 161 831 94 888 158 882 l 175 551 b 315 408 179 461 222 408 l 315 396 b 175 253 222 396 179 343 l 161 -28 b 56 -86 158 -81 96 -86 l 56 -222 l 182 -222 b 378 -67 276 -222 378 -174 l 378 271 b 499 347 378 326 436 347 l 499 457 b 378 536 443 457 378 481 l 378 868 b 182 1024 378 975 276 1024 z "},"~":{"ha":917,"x_min":0,"x_max":0,"o":"m 863 568 b 629 457 863 568 765 457 b 457 504 567 457 511 481 b 288 551 403 528 349 551 b 54 440 151 551 54 440 l 54 260 b 288 371 54 260 151 371 b 460 324 351 371 406 347 b 629 276 514 300 568 276 b 863 388 765 276 863 388 z "},"€":{"ha":926,"x_min":0,"x_max":0,"o":"m 658 972 b 175 640 471 972 246 896 l 32 640 l 32 511 l 157 511 l 157 444 l 32 444 l 32 315 l 175 315 b 654 -17 246 58 479 -17 b 872 18 739 -17 814 0 l 872 214 b 701 176 872 214 801 176 b 461 315 582 176 503 229 l 750 315 l 750 444 l 431 444 b 429 481 429 456 429 468 l 429 511 l 750 511 l 750 640 l 460 640 b 701 779 500 726 581 779 b 872 744 801 779 872 744 l 872 946 b 658 972 824 960 749 972 z "},"‚":{"ha":386,"x_min":0,"x_max":0,"o":"m 319 243 l 61 243 l 61 0 l 160 0 l 61 -253 l 193 -253 l 319 14 z "},"ƒ":{"ha":926,"x_min":0,"x_max":0,"o":"m 735 1024 b 411 764 576 1024 454 964 l 393 679 l 290 679 l 250 492 l 353 492 l 242 -31 b 149 -104 231 -82 210 -104 l 85 -104 l 50 -267 b 194 -292 85 -281 154 -292 b 518 -32 353 -292 475 -232 l 629 492 l 771 492 l 811 679 l 669 679 l 688 763 b 781 836 699 814 719 836 l 844 836 l 879 999 b 735 1024 844 1013 775 1024 z "},"„":{"ha":694,"x_min":0,"x_max":0,"o":"m 319 243 l 61 243 l 61 0 l 160 0 l 61 -253 l 193 -253 l 319 14 z m 638 243 l 379 243 l 379 0 l 478 0 l 379 -253 l 511 -253 l 638 14 z "},"…":{"ha":1389,"x_min":0,"x_max":0,"o":"m 379 276 l 85 276 l 85 0 l 379 0 z m 842 276 l 547 276 l 547 0 l 842 0 z m 1306 276 l 1011 276 l 1011 0 l 1306 0 z "},"†":{"ha":926,"x_min":0,"x_max":0,"o":"m 569 956 l 365 956 l 393 675 l 96 704 l 96 500 l 393 529 l 365 -257 l 569 -257 l 542 529 l 839 500 l 839 704 l 542 675 z "},"‡":{"ha":926,"x_min":0,"x_max":0,"o":"m 569 956 l 365 956 l 393 675 l 96 704 l 96 500 l 393 529 l 365 342 l 393 151 l 96 181 l 96 -24 l 393 6 l 365 -276 l 569 -276 l 542 6 l 839 -24 l 839 181 l 542 151 l 569 342 l 542 529 l 839 500 l 839 704 l 542 675 z "},"ˆ":{"ha":463,"x_min":0,"x_max":0,"o":"m 322 1007 l 144 1007 l -49 806 l 129 806 l 232 913 l 335 806 l 515 806 z "},"‰":{"ha":1389,"x_min":0,"x_max":0,"o":"m 204 878 b 269 758 253 878 269 843 l 269 689 b 204 569 269 604 253 569 b 138 689 156 569 138 604 l 138 758 b 204 878 138 843 156 878 z m 204 972 b 0 724 46 972 0 872 b 204 475 0 575 46 475 b 408 724 364 475 408 575 b 204 972 408 872 364 972 z m 725 386 b 790 267 774 386 790 351 l 790 197 b 725 78 790 113 774 78 b 658 197 676 78 658 113 l 658 267 b 725 386 658 351 676 386 z m 725 481 b 521 232 567 481 521 381 b 725 -17 521 83 567 -17 b 929 232 885 -17 929 83 b 725 481 929 381 885 481 z m 1185 386 b 1250 267 1233 386 1250 351 l 1250 197 b 1185 78 1250 113 1233 78 b 1118 197 1136 78 1118 113 l 1118 267 b 1185 386 1118 351 1136 386 z m 1185 481 b 981 232 1026 481 981 381 b 1185 -17 981 83 1026 -17 b 1389 232 1344 -17 1389 83 b 1185 481 1389 381 1344 481 z m 700 956 l 579 956 l 232 0 l 351 0 z "},"Š":{"ha":1003,"x_min":0,"x_max":0,"o":"m 504 972 b 75 667 278 972 75 889 b 639 267 75 294 639 404 b 504 203 639 207 560 203 b 350 324 410 203 350 221 l 60 324 b 532 -17 60 51 264 -17 b 953 317 772 -17 953 79 b 389 701 946 671 389 558 b 515 764 389 735 431 764 b 639 667 604 764 639 717 l 639 661 l 926 661 l 926 678 b 504 972 922 882 735 972 z m 783 1229 l 604 1229 l 500 1122 l 397 1229 l 219 1229 l 413 1028 l 590 1028 z "},"‹":{"ha":463,"x_min":0,"x_max":0,"o":"m 446 733 l 247 733 l 15 450 l 247 165 l 446 165 l 254 450 z "},"Œ":{"ha":1389,"x_min":0,"x_max":0,"o":"m 1351 0 l 1351 229 l 957 229 l 957 375 l 1267 375 l 1267 594 l 957 594 l 957 726 l 1342 726 l 1342 956 l 688 956 l 688 868 b 429 972 624 936 536 972 b 49 478 186 972 49 790 b 429 -17 49 165 186 -17 b 688 86 536 -17 624 19 l 688 0 z m 689 433 b 514 213 689 303 632 213 b 339 433 396 213 339 303 l 339 522 b 514 743 339 653 396 743 b 689 522 632 743 689 653 z "},"Ž":{"ha":1003,"x_min":0,"x_max":0,"o":"m 949 956 l 67 956 l 67 726 l 476 726 l 33 99 l 33 0 l 960 0 l 960 229 l 506 229 l 949 857 z m 783 1229 l 604 1229 l 500 1122 l 397 1229 l 219 1229 l 413 1028 l 590 1028 z "},"‘":{"ha":386,"x_min":0,"x_max":0,"o":"m 319 956 l 188 956 l 61 689 l 61 460 l 319 460 l 319 703 l 221 703 z "},"’":{"ha":386,"x_min":0,"x_max":0,"o":"m 325 956 l 67 956 l 67 713 l 165 713 l 67 460 l 199 460 l 325 726 z "},"“":{"ha":694,"x_min":0,"x_max":0,"o":"m 315 956 l 183 956 l 57 689 l 57 460 l 315 460 l 315 703 l 217 703 z m 633 956 l 501 956 l 375 689 l 375 460 l 633 460 l 633 703 l 535 703 z "},"”":{"ha":694,"x_min":0,"x_max":0,"o":"m 319 956 l 61 956 l 61 713 l 160 713 l 61 460 l 193 460 l 319 726 z m 638 956 l 379 956 l 379 713 l 478 713 l 379 460 l 511 460 l 638 726 z "},"•":{"ha":694,"x_min":0,"x_max":0,"o":"m 347 704 b 122 479 224 704 122 603 b 347 254 122 356 224 254 b 572 479 471 254 572 356 b 347 704 572 603 471 704 z "},"–":{"ha":694,"x_min":0,"x_max":0,"o":"m 694 464 l 0 464 l 0 272 l 694 272 z "},"—":{"ha":1389,"x_min":0,"x_max":0,"o":"m 1392 464 l 0 464 l 0 272 l 1392 272 z "},"˜":{"ha":463,"x_min":0,"x_max":0,"o":"m 426 1007 b 357 951 417 975 392 951 b 117 1007 282 951 206 1007 b -78 808 0 1007 -78 908 l 35 808 b 104 864 44 840 69 864 b 344 808 179 864 256 808 b 539 1007 461 808 539 907 z "},"™":{"ha":1319,"x_min":0,"x_max":0,"o":"m 1269 956 l 1028 956 l 947 636 l 940 636 l 858 956 l 608 956 l 608 403 l 771 403 l 771 575 b 754 776 771 668 754 776 l 760 776 l 863 403 l 1001 403 l 1104 778 l 1110 778 b 1094 575 1110 778 1094 668 l 1094 403 l 1269 403 z m 565 956 l 25 956 l 25 814 l 207 814 l 207 403 l 385 403 l 385 814 l 565 814 z "},"š":{"ha":849,"x_min":0,"x_max":0,"o":"m 432 750 b 64 501 239 750 64 694 b 538 203 64 213 538 313 b 422 149 538 151 461 149 b 301 233 382 149 303 163 l 301 239 l 44 239 b 422 -17 44 56 239 -17 b 801 243 624 -17 801 42 b 328 538 801 542 328 432 b 428 585 328 585 404 585 b 490 571 447 585 471 582 b 526 514 511 561 526 543 l 783 514 b 432 750 783 688 606 750 z m 707 1007 l 526 1007 l 424 900 l 319 1007 l 143 1007 l 336 806 l 514 806 z "},"›":{"ha":463,"x_min":0,"x_max":0,"o":"m 208 450 l 17 165 l 215 165 l 447 450 l 215 733 l 17 733 z "},"œ":{"ha":1389,"x_min":0,"x_max":0,"o":"m 953 750 b 697 681 850 750 764 726 b 439 750 631 726 542 750 b 40 367 197 750 40 624 b 439 -17 40 110 197 -17 b 697 53 542 -17 629 6 b 969 -17 767 6 858 -17 b 1353 267 1224 -17 1353 92 l 1085 267 b 964 160 1085 207 1053 160 b 831 319 868 160 831 218 l 1353 319 l 1353 367 b 953 750 1353 631 1208 750 z m 439 563 b 563 406 526 563 563 503 l 563 326 b 439 171 563 229 526 171 b 317 326 351 171 317 229 l 317 406 b 439 563 317 503 351 563 z m 964 574 b 1074 450 1033 574 1074 526 l 832 450 b 964 574 840 526 879 574 z "},"ž":{"ha":772,"x_min":0,"x_max":0,"o":"m 731 733 l 44 733 l 44 546 l 336 546 l 28 90 l 28 0 l 743 0 l 743 188 l 419 188 l 731 647 z m 668 1007 l 489 1007 l 385 900 l 282 1007 l 104 1007 l 297 806 l 475 806 z "},"Ÿ":{"ha":1081,"x_min":0,"x_max":0,"o":"m 1069 956 l 735 956 l 551 638 l 546 638 l 363 956 l 10 956 l 389 371 l 389 0 l 696 0 l 696 371 z m 799 1229 l 588 1229 l 588 1036 l 799 1036 z m 493 1229 l 282 1229 l 282 1036 l 493 1036 z "}," ":{"ha":463,"x_min":0,"x_max":0,"o":""},"¡":{"ha":463,"x_min":0,"x_max":0,"o":"m 318 392 l 142 392 l 65 -222 l 397 -222 z m 368 733 l 93 733 l 93 476 l 368 476 z "},"¢":{"ha":926,"x_min":0,"x_max":0,"o":"m 544 1050 l 388 1050 l 397 860 b 50 479 185 839 50 713 b 397 99 50 244 185 119 l 388 -93 l 544 -93 l 533 99 b 867 411 724 117 867 211 l 610 411 b 468 283 610 321 558 283 b 326 439 367 283 326 342 l 326 518 b 463 675 326 615 365 675 b 599 550 549 675 599 636 l 867 550 b 533 858 867 749 724 840 z "},"£":{"ha":926,"x_min":0,"x_max":0,"o":"m 529 972 b 174 685 282 972 174 844 l 174 560 l 43 560 l 43 383 l 174 383 l 174 204 l 85 204 l 85 0 l 811 0 l 811 204 l 419 204 l 447 383 l 582 383 l 582 560 l 449 560 l 449 686 b 529 767 449 731 485 767 b 610 686 574 767 610 731 l 610 647 l 886 647 l 886 686 b 529 972 886 844 764 972 z "},"¤":{"ha":917,"x_min":0,"x_max":0,"o":"m 726 838 l 646 757 b 457 815 610 790 535 815 b 263 754 383 815 304 790 l 183 833 l 96 746 l 176 665 b 113 471 133 624 113 546 b 176 276 113 393 136 322 l 96 196 l 181 111 l 260 190 b 457 126 304 150 379 126 b 654 193 536 126 613 151 l 735 113 l 818 196 l 740 274 b 801 471 779 321 801 396 b 743 665 801 549 779 626 l 821 743 z m 457 663 b 635 471 564 663 635 574 b 457 279 635 368 564 279 b 279 471 356 279 279 364 b 457 663 279 576 354 663 z "},"¥":{"ha":926,"x_min":0,"x_max":0,"o":"m 924 956 l 622 956 l 475 638 l 469 638 l 322 956 l 3 956 l 179 638 l 44 638 l 44 508 l 250 508 l 288 442 l 44 442 l 44 313 l 326 313 l 326 0 l 606 0 l 606 313 l 886 313 l 886 442 l 643 442 l 679 508 l 886 508 l 886 638 l 750 638 z "},"¦":{"ha":386,"x_min":0,"x_max":0,"o":"m 281 1008 l 108 1008 l 108 467 l 281 467 z m 281 250 l 108 250 l 108 -292 l 281 -292 z "},"§":{"ha":926,"x_min":0,"x_max":0,"o":"m 458 972 b 96 735 304 972 96 917 b 200 565 96 661 139 607 b 75 354 157 536 75 465 b 561 -42 75 82 561 86 b 456 -92 561 -79 503 -92 b 358 -29 413 -92 358 -75 l 107 -29 l 107 -43 b 468 -256 107 -208 317 -256 b 831 -18 622 -256 831 -200 b 725 151 831 56 788 108 b 851 363 768 181 851 250 b 365 758 851 635 365 631 b 471 808 365 796 424 808 b 568 746 514 808 568 792 l 819 746 l 819 760 b 458 972 819 925 610 972 z m 350 488 b 619 299 483 431 619 385 b 576 229 619 268 597 246 b 307 418 443 286 307 332 b 350 488 307 447 329 471 z "},"¨":{"ha":463,"x_min":0,"x_max":0,"o":"m 489 1007 l 278 1007 l 278 814 l 489 814 z m 183 1007 l -28 1007 l -28 814 l 183 814 z "},"©":{"ha":1111,"x_min":0,"x_max":0,"o":"m 556 972 b 61 479 264 972 61 756 b 556 -17 61 203 264 -17 b 1053 479 847 -17 1053 203 b 556 972 1053 756 847 972 z m 563 775 b 264 478 365 775 264 674 b 563 181 264 282 365 181 b 839 424 738 181 839 265 l 668 424 b 560 318 668 357 632 318 b 453 451 485 318 453 372 l 453 504 b 561 638 453 583 482 638 b 663 529 626 638 663 594 l 839 529 b 563 775 839 689 729 775 z m 556 883 b 946 479 793 883 946 724 b 556 74 946 235 793 74 b 168 479 318 74 168 235 b 556 883 168 724 318 883 z "},"ª":{"ha":556,"x_min":0,"x_max":0,"o":"m 282 1024 b 31 888 117 1024 31 968 b 32 875 31 883 31 879 l 210 875 b 279 917 210 908 247 917 b 349 865 318 917 349 900 l 349 843 b 17 686 139 843 17 818 b 186 563 17 594 86 563 b 364 618 269 563 324 589 b 497 563 381 585 424 563 b 592 583 557 563 592 583 l 592 679 b 558 675 592 679 571 675 b 529 708 539 675 529 690 l 529 879 b 282 1024 529 988 413 1024 z m 349 728 b 260 667 349 692 306 667 b 199 708 229 667 199 674 b 349 765 199 740 242 765 z "},"«":{"ha":926,"x_min":0,"x_max":0,"o":"m 842 733 l 643 733 l 411 450 l 643 165 l 842 165 l 650 450 z m 514 733 l 315 733 l 83 450 l 315 165 l 514 165 l 322 450 z "},"¬":{"ha":917,"x_min":0,"x_max":0,"o":"m 839 681 l 69 681 l 69 465 l 625 465 l 625 214 l 839 214 z "},"­":{"ha":463,"x_min":0,"x_max":0,"o":"m 408 492 l 54 492 l 54 272 l 408 272 z "},"®":{"ha":1111,"x_min":0,"x_max":0,"o":"m 556 972 b 61 479 264 972 61 756 b 556 -17 61 203 264 -17 b 1053 479 847 -17 1053 203 b 556 972 1053 756 847 972 z m 556 883 b 946 479 793 883 946 724 b 556 74 946 235 793 74 b 168 479 318 74 168 235 b 556 883 168 724 318 883 z m 322 765 l 322 192 l 507 192 l 507 394 l 533 394 b 608 285 606 394 608 333 b 738 182 608 208 654 182 b 839 199 769 182 808 186 l 839 233 b 796 336 797 244 796 301 b 703 471 796 400 768 453 l 703 478 b 796 621 740 493 796 535 b 636 765 796 708 724 765 z m 556 635 b 608 579 585 635 608 611 b 556 522 608 546 585 522 l 507 522 l 507 635 z "},"¯":{"ha":463,"x_min":0,"x_max":0,"o":"m 451 979 l 13 979 l 13 840 l 451 840 z "},"°":{"ha":556,"x_min":0,"x_max":0,"o":"m 278 972 b 69 764 163 972 69 878 b 278 556 71 649 163 556 b 486 764 392 556 486 649 b 278 972 486 878 392 972 z m 275 849 b 363 763 324 849 363 810 b 276 676 363 715 324 676 b 190 763 229 676 190 715 b 275 849 190 810 231 849 z "},"±":{"ha":917,"x_min":0,"x_max":0,"o":"m 550 933 l 367 933 l 367 681 l 92 681 l 92 497 l 367 497 l 367 244 l 550 244 l 550 497 l 825 497 l 825 681 l 550 681 z m 825 183 l 92 183 l 92 0 l 825 0 z "},"²":{"ha":556,"x_min":0,"x_max":0,"o":"m 293 1024 b 24 829 114 1024 24 946 b 25 811 24 824 24 818 l 188 811 l 188 828 b 275 906 188 872 219 906 b 354 844 331 906 354 876 b 110 629 354 792 251 744 b 22 481 58 588 22 543 l 22 440 l 542 440 l 542 582 l 268 582 b 535 851 397 667 535 726 b 293 1024 535 954 442 1024 z "},"³":{"ha":556,"x_min":0,"x_max":0,"o":"m 292 1024 b 42 868 132 1024 42 953 l 42 847 l 193 847 b 276 910 193 881 222 910 b 357 844 328 910 357 878 b 293 785 357 803 328 785 l 240 785 l 240 682 l 307 682 b 371 622 343 682 371 663 b 276 546 371 578 346 546 b 182 614 203 546 182 576 l 21 614 l 21 596 b 288 432 21 506 106 432 b 553 597 468 432 547 506 b 443 738 553 667 513 717 l 443 743 b 535 868 497 761 535 811 b 292 1024 535 953 447 1024 z "},"´":{"ha":463,"x_min":0,"x_max":0,"o":"m 438 1007 l 169 1007 l 42 822 l 218 822 l 440 1001 z "},"µ":{"ha":926,"x_min":0,"x_max":0,"o":"m 842 733 l 565 733 l 565 303 b 450 188 565 240 519 188 b 357 292 389 188 357 231 l 357 733 l 81 733 l 81 -272 l 357 -272 l 357 -15 b 597 111 453 -10 543 38 l 615 0 l 842 0 z "},"¶":{"ha":1181,"x_min":0,"x_max":0,"o":"m 1033 956 l 451 956 b 151 654 285 956 151 821 b 439 354 151 492 278 360 l 439 -224 l 617 -224 l 617 788 l 764 788 l 764 -224 l 942 -224 l 942 788 l 1033 788 z "},"·":{"ha":463,"x_min":0,"x_max":0,"o":"m 364 581 l 99 581 l 99 326 l 364 326 z "},"¸":{"ha":463,"x_min":0,"x_max":0,"o":"m 290 54 l 204 54 l 178 -119 l 231 -119 b 283 -164 271 -119 283 -136 b 228 -207 283 -196 261 -207 b 65 -196 156 -207 65 -196 l 65 -271 b 240 -293 106 -285 176 -293 b 404 -164 304 -293 404 -269 b 275 -40 404 -78 343 -47 z "},"¹":{"ha":556,"x_min":0,"x_max":0,"o":"m 372 1013 l 311 1013 b 42 922 240 969 126 928 l 42 826 l 190 826 l 190 567 l 42 567 l 42 439 l 515 439 l 515 567 l 372 567 z "},"º":{"ha":556,"x_min":0,"x_max":0,"o":"m 286 1024 b 17 793 124 1024 17 947 b 286 563 17 639 124 563 b 557 793 450 563 557 639 b 286 1024 557 947 450 1024 z m 286 911 b 376 817 350 911 376 875 l 376 769 b 286 675 376 711 350 675 b 197 769 222 675 197 711 l 197 817 b 286 911 197 875 222 911 z "},"»":{"ha":926,"x_min":0,"x_max":0,"o":"m 276 450 l 85 165 l 283 165 l 515 450 l 283 733 l 85 733 z m 604 450 l 413 165 l 611 165 l 843 450 l 611 733 l 413 733 z "},"¼":{"ha":1389,"x_min":0,"x_max":0,"o":"m 1064 972 l 931 972 l 361 -17 l 493 -17 z m 383 963 l 322 963 b 53 872 251 919 138 878 l 53 776 l 201 776 l 201 517 l 53 517 l 53 389 l 526 389 l 526 517 l 383 517 z m 968 583 b 793 242 926 453 851 321 l 793 118 l 1099 118 l 1099 0 l 1271 0 l 1271 118 l 1358 118 l 1358 240 l 1271 240 l 1271 528 l 1193 528 b 1099 358 1181 481 1129 400 l 1099 240 l 918 240 b 1146 583 1004 321 1133 492 z "},"½":{"ha":1389,"x_min":0,"x_max":0,"o":"m 1064 972 l 931 972 l 361 -17 l 493 -17 z m 383 964 l 322 964 b 53 874 251 921 138 879 l 53 778 l 201 778 l 201 518 l 53 518 l 53 390 l 526 390 l 526 518 l 383 518 z m 1106 583 b 836 389 926 583 836 506 b 838 371 836 383 836 378 l 1000 371 l 1000 388 b 1088 465 1000 432 1032 465 b 1167 404 1143 465 1167 436 b 922 189 1167 351 1064 304 b 835 40 871 147 835 103 l 835 0 l 1354 0 l 1354 142 l 1081 142 b 1347 411 1210 226 1347 286 b 1106 583 1347 514 1254 583 z "},"¾":{"ha":1389,"x_min":0,"x_max":0,"o":"m 1064 972 l 931 972 l 361 -17 l 493 -17 z m 310 974 b 60 818 150 974 60 903 l 60 797 l 211 797 b 294 860 211 831 240 860 b 375 794 346 860 375 828 b 311 735 375 753 346 735 l 258 735 l 258 632 l 325 632 b 389 572 361 632 389 613 b 294 496 389 528 364 496 b 200 564 221 496 200 526 l 39 564 l 39 546 b 306 382 39 456 124 382 b 571 547 486 382 565 456 b 461 688 571 617 531 667 l 461 693 b 553 818 515 711 553 761 b 310 974 553 903 465 974 z m 957 583 b 782 242 915 453 840 321 l 782 118 l 1088 118 l 1088 0 l 1260 0 l 1260 118 l 1347 118 l 1347 240 l 1260 240 l 1260 528 l 1182 528 b 1088 358 1169 481 1118 400 l 1088 240 l 907 240 b 1135 583 993 321 1122 492 z "},"¿":{"ha":849,"x_min":0,"x_max":0,"o":"m 539 390 l 301 390 l 301 361 b 64 43 301 288 64 232 b 419 -240 64 -129 207 -240 b 799 53 638 -240 799 -128 b 794 106 799 71 796 88 l 539 106 b 540 68 540 93 540 81 b 450 -49 540 10 525 -49 b 358 49 392 -49 358 -3 b 539 321 358 161 539 219 z m 556 732 l 281 732 l 281 475 l 556 475 z "},"À":{"ha":1081,"x_min":0,"x_max":0,"o":"m 1068 0 l 719 956 l 363 956 l 14 0 l 328 0 l 368 135 l 703 135 l 743 0 z m 533 689 l 539 689 l 639 349 l 432 349 z m 674 1044 l 546 1229 l 278 1229 l 275 1224 l 497 1044 z "},"Á":{"ha":1081,"x_min":0,"x_max":0,"o":"m 1068 0 l 719 956 l 363 956 l 14 0 l 328 0 l 368 135 l 703 135 l 743 0 z m 533 689 l 539 689 l 639 349 l 432 349 z m 806 1224 l 803 1229 l 535 1229 l 407 1044 l 583 1044 z "},"Â":{"ha":1081,"x_min":0,"x_max":0,"o":"m 719 956 l 363 956 l 14 0 l 328 0 l 368 135 l 703 135 l 743 0 l 1068 0 z m 539 689 l 639 349 l 432 349 l 533 689 z m 629 1229 l 451 1229 l 258 1028 l 436 1028 l 539 1135 l 642 1028 l 822 1028 z "},"Ã":{"ha":1081,"x_min":0,"x_max":0,"o":"m 719 956 l 363 956 l 14 0 l 328 0 l 368 135 l 703 135 l 743 0 l 1068 0 z m 539 689 l 639 349 l 432 349 l 533 689 z m 736 1229 b 667 1174 726 1197 701 1174 b 426 1229 592 1174 515 1229 b 232 1031 310 1229 232 1131 l 344 1031 b 414 1086 354 1063 379 1086 b 654 1031 489 1086 565 1031 b 849 1229 771 1031 849 1129 z "},"Ä":{"ha":1081,"x_min":0,"x_max":0,"o":"m 719 956 l 363 956 l 14 0 l 328 0 l 368 135 l 703 135 l 743 0 l 1068 0 z m 539 689 l 639 349 l 432 349 l 533 689 z m 799 1229 l 588 1229 l 588 1036 l 799 1036 z m 493 1229 l 282 1229 l 282 1036 l 493 1036 z "},"Å":{"ha":1081,"x_min":0,"x_max":0,"o":"m 719 956 l 363 956 l 14 0 l 328 0 l 368 135 l 703 135 l 743 0 l 1068 0 z m 539 689 l 639 349 l 432 349 l 533 689 z m 540 1325 b 389 1174 457 1325 389 1257 b 540 1024 389 1090 458 1024 b 692 1174 624 1024 692 1092 b 540 1325 692 1258 622 1325 z m 540 1229 b 596 1175 572 1229 596 1207 b 540 1118 596 1142 574 1118 b 485 1172 508 1118 485 1140 b 540 1229 485 1206 507 1229 z "},"Æ":{"ha":1389,"x_min":0,"x_max":0,"o":"m 696 0 l 1336 0 l 1336 229 l 935 229 l 901 375 l 1249 375 l 1249 594 l 850 594 l 819 726 l 1326 726 l 1326 956 l 383 956 l -21 0 l 293 0 l 340 135 l 665 135 z m 538 689 l 543 689 l 618 349 l 417 349 z "},"Ç":{"ha":1081,"x_min":0,"x_max":0,"o":"m 558 972 b 63 478 232 972 63 804 b 499 -15 63 172 211 4 l 483 -119 l 536 -119 b 589 -164 576 -119 589 -136 b 533 -207 589 -196 567 -207 b 371 -196 461 -207 371 -196 l 371 -271 b 546 -293 411 -285 482 -293 b 710 -164 610 -293 710 -269 b 581 -40 710 -78 649 -47 l 585 -17 b 1018 388 860 -8 1018 133 l 735 388 b 554 213 735 278 675 213 b 376 433 429 213 376 303 l 376 522 b 557 743 376 653 426 743 b 725 563 667 743 725 672 l 1018 563 b 558 972 1018 829 836 972 z "},"È":{"ha":1003,"x_min":0,"x_max":0,"o":"m 669 1044 l 542 1229 l 274 1229 l 271 1224 l 493 1044 z m 939 0 l 939 229 l 410 229 l 410 375 l 854 375 l 854 594 l 410 594 l 410 726 l 929 726 l 929 956 l 103 956 l 103 0 z "},"É":{"ha":1003,"x_min":0,"x_max":0,"o":"m 801 1224 l 799 1229 l 531 1229 l 403 1044 l 579 1044 z m 939 0 l 939 229 l 410 229 l 410 375 l 854 375 l 854 594 l 410 594 l 410 726 l 929 726 l 929 956 l 103 956 l 103 0 z "},"Ê":{"ha":1003,"x_min":0,"x_max":0,"o":"m 625 1229 l 447 1229 l 254 1028 l 432 1028 l 535 1135 l 638 1028 l 818 1028 z m 939 0 l 939 229 l 410 229 l 410 375 l 854 375 l 854 594 l 410 594 l 410 726 l 929 726 l 929 956 l 103 956 l 103 0 z "},"Ë":{"ha":1003,"x_min":0,"x_max":0,"o":"m 794 1229 l 583 1229 l 583 1036 l 794 1036 z m 489 1229 l 278 1229 l 278 1036 l 489 1036 z m 939 0 l 939 229 l 410 229 l 410 375 l 854 375 l 854 594 l 410 594 l 410 726 l 929 726 l 929 956 l 103 956 l 103 0 z "},"Ì":{"ha":540,"x_min":0,"x_max":0,"o":"m 424 0 l 424 956 l 117 956 l 117 0 z m 404 1044 l 276 1229 l 8 1229 l 6 1224 l 228 1044 z "},"Í":{"ha":540,"x_min":0,"x_max":0,"o":"m 424 0 l 424 956 l 117 956 l 117 0 z m 536 1224 l 533 1229 l 265 1229 l 138 1044 l 314 1044 z "},"Î":{"ha":540,"x_min":0,"x_max":0,"o":"m 424 956 l 117 956 l 117 0 l 424 0 z m 360 1229 l 182 1229 l -11 1028 l 167 1028 l 269 1135 l 372 1028 l 553 1028 z "},"Ï":{"ha":540,"x_min":0,"x_max":0,"o":"m 424 956 l 117 956 l 117 0 l 424 0 z m 529 1229 l 318 1229 l 318 1036 l 529 1036 z m 224 1229 l 13 1229 l 13 1036 l 224 1036 z "},"Ð":{"ha":1081,"x_min":0,"x_max":0,"o":"m 1 422 l 103 422 l 103 0 l 517 0 b 1018 478 843 0 1018 151 b 517 956 1018 804 843 956 l 103 956 l 103 558 l 1 558 z m 544 422 l 544 558 l 410 558 l 410 726 l 511 726 b 704 519 646 726 704 650 l 704 436 b 511 229 704 306 646 229 l 410 229 l 410 422 z "},"Ñ":{"ha":1157,"x_min":0,"x_max":0,"o":"m 1054 956 l 772 956 l 772 485 l 371 956 l 103 956 l 103 0 l 385 0 l 385 464 l 786 0 l 1054 0 z m 775 1229 b 704 1174 764 1197 740 1174 b 464 1229 631 1174 553 1229 b 269 1031 347 1229 269 1131 l 382 1031 b 453 1086 393 1063 417 1086 b 693 1031 526 1086 604 1031 b 888 1229 810 1031 888 1129 z "},"Ò":{"ha":1157,"x_min":0,"x_max":0,"o":"m 578 972 b 63 478 251 972 63 804 b 578 -17 63 151 251 -17 b 1094 478 904 -17 1094 151 b 578 972 1094 804 904 972 z m 578 743 b 781 522 713 743 781 653 l 781 433 b 578 213 781 303 713 213 b 376 433 443 213 376 303 l 376 522 b 578 743 376 653 443 743 z m 713 1044 l 583 1229 l 317 1229 l 314 1224 l 536 1044 z "},"Ó":{"ha":1157,"x_min":0,"x_max":0,"o":"m 578 972 b 63 478 251 972 63 804 b 578 -17 63 151 251 -17 b 1094 478 904 -17 1094 151 b 578 972 1094 804 904 972 z m 578 743 b 781 522 713 743 781 653 l 781 433 b 578 213 781 303 713 213 b 376 433 443 213 376 303 l 376 522 b 578 743 376 653 443 743 z m 843 1224 l 840 1229 l 574 1229 l 444 1044 l 622 1044 z "},"Ô":{"ha":1157,"x_min":0,"x_max":0,"o":"m 578 972 b 63 478 251 972 63 804 b 578 -17 63 151 251 -17 b 1094 478 904 -17 1094 151 b 578 972 1094 804 904 972 z m 578 743 b 781 522 713 743 781 653 l 781 433 b 578 213 781 303 713 213 b 376 433 443 213 376 303 l 376 522 b 578 743 376 653 443 743 z m 667 1229 l 490 1229 l 296 1028 l 474 1028 l 578 1135 l 681 1028 l 861 1028 z "},"Õ":{"ha":1157,"x_min":0,"x_max":0,"o":"m 578 972 b 63 478 251 972 63 804 b 578 -17 63 151 251 -17 b 1094 478 904 -17 1094 151 b 578 972 1094 804 904 972 z m 578 743 b 781 522 713 743 781 653 l 781 433 b 578 213 781 303 713 213 b 376 433 443 213 376 303 l 376 522 b 578 743 376 653 443 743 z m 775 1229 b 704 1174 764 1197 740 1174 b 464 1229 631 1174 553 1229 b 269 1031 347 1229 269 1131 l 382 1031 b 453 1086 393 1063 417 1086 b 693 1031 526 1086 604 1031 b 888 1229 810 1031 888 1129 z "},"Ö":{"ha":1157,"x_min":0,"x_max":0,"o":"m 578 972 b 63 478 251 972 63 804 b 578 -17 63 151 251 -17 b 1094 478 904 -17 1094 151 b 578 972 1094 804 904 972 z m 578 743 b 781 522 713 743 781 653 l 781 433 b 578 213 781 303 713 213 b 376 433 443 213 376 303 l 376 522 b 578 743 376 653 443 743 z m 838 1229 l 626 1229 l 626 1036 l 838 1036 z m 531 1229 l 319 1229 l 319 1036 l 531 1036 z "},"×":{"ha":917,"x_min":0,"x_max":0,"o":"m 692 731 l 458 496 l 225 731 l 94 600 l 329 367 l 94 133 l 225 3 l 458 238 l 692 3 l 822 133 l 588 367 l 822 600 z "},"Ø":{"ha":1157,"x_min":0,"x_max":0,"o":"m 1082 1007 l 932 1007 l 858 915 b 578 972 781 953 688 972 b 63 478 251 972 63 804 b 200 106 63 313 111 188 l 75 -50 l 225 -50 l 297 39 b 578 -17 374 1 468 -17 b 1094 478 904 -17 1094 151 b 954 850 1094 643 1046 768 z m 765 617 b 781 522 775 589 781 557 l 781 433 b 578 213 781 303 713 213 b 463 243 531 213 493 224 z m 578 743 b 693 713 624 743 663 732 l 390 339 b 376 433 381 367 376 399 l 376 522 b 578 743 376 653 443 743 z "},"Ù":{"ha":1157,"x_min":0,"x_max":0,"o":"m 1054 956 l 747 956 l 747 389 b 578 213 747 286 690 213 b 410 389 465 213 410 286 l 410 956 l 103 956 l 103 385 b 579 -17 103 121 279 -17 b 1054 385 879 -17 1054 121 z m 713 1044 l 583 1229 l 317 1229 l 314 1224 l 536 1044 z "},"Ú":{"ha":1157,"x_min":0,"x_max":0,"o":"m 1054 956 l 747 956 l 747 389 b 578 213 747 286 690 213 b 410 389 465 213 410 286 l 410 956 l 103 956 l 103 385 b 579 -17 103 121 279 -17 b 1054 385 879 -17 1054 121 z m 843 1224 l 840 1229 l 574 1229 l 444 1044 l 622 1044 z "},"Û":{"ha":1157,"x_min":0,"x_max":0,"o":"m 1054 956 l 747 956 l 747 389 b 578 213 747 286 690 213 b 410 389 465 213 410 286 l 410 956 l 103 956 l 103 385 b 579 -17 103 121 279 -17 b 1054 385 879 -17 1054 121 z m 667 1229 l 490 1229 l 296 1028 l 474 1028 l 578 1135 l 681 1028 l 861 1028 z "},"Ü":{"ha":1157,"x_min":0,"x_max":0,"o":"m 1054 956 l 747 956 l 747 389 b 578 213 747 286 690 213 b 410 389 465 213 410 286 l 410 956 l 103 956 l 103 385 b 579 -17 103 121 279 -17 b 1054 385 879 -17 1054 121 z m 838 1229 l 626 1229 l 626 1036 l 838 1036 z m 531 1229 l 319 1229 l 319 1036 l 531 1036 z "},"Ý":{"ha":1081,"x_min":0,"x_max":0,"o":"m 696 371 l 1069 956 l 735 956 l 551 638 l 546 638 l 363 956 l 10 956 l 389 371 l 389 0 l 696 0 z m 806 1224 l 803 1229 l 535 1229 l 407 1044 l 583 1044 z "},"Þ":{"ha":1003,"x_min":0,"x_max":0,"o":"m 410 956 l 103 956 l 103 0 l 410 0 l 410 169 l 639 169 b 944 485 819 169 944 304 l 944 503 b 639 817 944 683 819 817 l 410 817 z m 536 590 b 633 497 603 590 633 554 l 633 486 b 536 393 633 429 601 393 l 410 393 l 410 590 z "},"ß":{"ha":926,"x_min":0,"x_max":0,"o":"m 467 1024 b 93 718 286 1024 93 938 l 93 0 l 369 0 l 369 742 b 467 838 369 796 407 838 b 564 742 528 838 564 796 b 474 647 564 689 525 647 l 436 647 l 436 451 l 475 451 b 590 318 538 451 590 392 b 475 189 590 249 539 189 l 436 189 l 436 0 l 525 0 b 867 297 722 0 867 97 b 699 549 867 408 797 513 l 699 556 b 829 761 779 589 829 672 b 467 1024 829 964 636 1024 z "},"à":{"ha":926,"x_min":0,"x_max":0,"o":"m 446 750 b 63 524 194 750 63 658 b 64 504 63 517 63 511 l 336 504 l 336 510 b 442 574 336 558 393 574 b 549 486 501 574 549 546 l 549 450 b 42 189 228 450 42 408 b 300 -17 42 36 147 -17 b 571 75 428 -17 510 26 b 775 -17 596 19 664 -17 b 919 11 868 -17 919 11 l 919 171 l 869 171 b 825 225 839 171 825 194 l 825 511 b 446 750 825 692 647 750 z m 549 257 b 413 156 549 197 483 156 b 318 225 365 156 318 168 b 549 319 318 279 385 319 z m 579 822 l 451 1007 l 183 1007 l 181 1001 l 404 822 z "},"á":{"ha":926,"x_min":0,"x_max":0,"o":"m 446 750 b 63 524 194 750 63 658 b 64 504 63 517 63 511 l 336 504 l 336 510 b 442 574 336 558 393 574 b 549 486 501 574 549 546 l 549 450 b 42 189 228 450 42 408 b 300 -17 42 36 147 -17 b 571 75 428 -17 510 26 b 775 -17 596 19 664 -17 b 919 11 868 -17 919 11 l 919 171 l 869 171 b 825 225 839 171 825 194 l 825 511 b 446 750 825 692 647 750 z m 549 257 b 413 156 549 197 483 156 b 318 225 365 156 318 168 b 549 319 318 279 385 319 z m 711 1001 l 708 1007 l 440 1007 l 313 822 l 490 822 z "},"â":{"ha":926,"x_min":0,"x_max":0,"o":"m 446 750 b 63 524 194 750 63 658 b 64 504 63 517 63 511 l 336 504 l 336 510 b 442 574 336 558 393 574 b 549 486 501 574 549 546 l 549 450 b 42 189 228 450 42 408 b 300 -17 42 36 147 -17 b 571 75 428 -17 510 26 b 775 -17 596 19 664 -17 b 919 11 868 -17 919 11 l 919 171 l 869 171 b 825 225 839 171 825 194 l 825 511 b 446 750 825 692 647 750 z m 549 257 b 413 156 549 197 483 156 b 318 225 365 156 318 168 b 549 319 318 279 385 319 z m 551 1007 l 375 1007 l 181 806 l 358 806 l 463 913 l 565 806 l 746 806 z "},"ã":{"ha":926,"x_min":0,"x_max":0,"o":"m 446 750 b 63 524 194 750 63 658 b 64 504 63 517 63 511 l 336 504 l 336 510 b 442 574 336 558 393 574 b 549 486 501 574 549 546 l 549 450 b 42 189 228 450 42 408 b 300 -17 42 36 147 -17 b 571 75 428 -17 510 26 b 775 -17 596 19 664 -17 b 919 11 868 -17 919 11 l 919 171 l 869 171 b 825 225 839 171 825 194 l 825 511 b 446 750 825 692 647 750 z m 549 257 b 413 156 549 197 483 156 b 318 225 365 156 318 168 b 549 319 318 279 385 319 z m 660 1007 b 589 951 649 975 625 951 b 349 1007 515 951 438 1007 b 154 808 232 1007 154 908 l 267 808 b 338 864 278 840 301 864 b 578 808 411 864 489 808 b 772 1007 694 808 772 907 z "},"ä":{"ha":926,"x_min":0,"x_max":0,"o":"m 446 750 b 63 524 194 750 63 658 b 64 504 63 517 63 511 l 336 504 l 336 510 b 442 574 336 558 393 574 b 549 486 501 574 549 546 l 549 450 b 42 189 228 450 42 408 b 300 -17 42 36 147 -17 b 571 75 428 -17 510 26 b 775 -17 596 19 664 -17 b 919 11 868 -17 919 11 l 919 171 l 869 171 b 825 225 839 171 825 194 l 825 511 b 446 750 825 692 647 750 z m 549 257 b 413 156 549 197 483 156 b 318 225 365 156 318 168 b 549 319 318 279 385 319 z m 722 1007 l 511 1007 l 511 814 l 722 814 z m 415 1007 l 204 1007 l 204 814 l 415 814 z "},"å":{"ha":926,"x_min":0,"x_max":0,"o":"m 446 750 b 63 524 194 750 63 658 b 64 504 63 517 63 511 l 336 504 l 336 510 b 442 574 336 558 393 574 b 549 486 501 574 549 546 l 549 450 b 42 189 228 450 42 408 b 300 -17 42 36 147 -17 b 571 75 428 -17 510 26 b 775 -17 596 19 664 -17 b 919 11 868 -17 919 11 l 919 171 l 869 171 b 825 225 839 171 825 194 l 825 511 b 446 750 825 692 647 750 z m 549 257 b 413 156 549 197 483 156 b 318 225 365 156 318 168 b 549 319 318 279 385 319 z m 463 1103 b 313 951 379 1103 313 1035 b 463 801 313 868 381 801 b 614 951 547 801 614 869 b 463 1103 614 1036 546 1103 z m 463 1007 b 519 953 494 1007 519 985 b 463 896 519 919 496 896 b 407 950 432 896 407 918 b 463 1007 407 983 431 1007 z "},"æ":{"ha":1389,"x_min":0,"x_max":0,"o":"m 964 750 b 719 683 869 750 786 728 b 446 750 650 732 550 750 b 63 524 194 750 63 658 b 64 504 63 517 63 511 l 336 504 l 336 510 b 447 574 336 558 396 574 b 549 486 504 574 549 546 l 549 450 b 42 203 226 450 42 410 b 356 -17 42 33 163 -17 b 656 85 486 -17 585 32 b 981 -17 729 15 842 -17 b 1350 267 1225 -17 1350 92 l 1082 267 b 961 160 1082 207 1050 160 b 828 319 865 160 828 218 l 1350 319 l 1350 367 b 964 750 1350 631 1211 750 z m 549 257 b 413 156 549 197 483 156 b 318 225 365 156 318 168 b 549 319 318 279 385 319 z m 956 574 b 1071 450 1029 574 1071 526 l 829 450 b 956 574 838 526 875 574 z "},"ç":{"ha":926,"x_min":0,"x_max":0,"o":"m 463 750 b 50 367 213 750 50 624 b 422 -15 50 124 194 -1 l 406 -119 l 460 -119 b 513 -164 499 -119 513 -136 b 457 -207 513 -196 490 -207 b 293 -196 383 -207 293 -196 l 293 -271 b 468 -293 335 -285 406 -293 b 633 -164 533 -293 633 -269 b 504 -40 633 -78 572 -47 l 507 -15 b 867 299 710 -3 867 90 l 610 299 b 468 171 610 208 558 171 b 326 326 367 171 326 229 l 326 406 b 463 563 326 503 365 563 b 599 438 549 563 599 524 l 867 438 b 463 750 867 661 686 750 z "},"è":{"ha":926,"x_min":0,"x_max":0,"o":"m 463 750 b 50 367 213 750 50 624 b 479 -17 50 103 215 -17 b 876 267 743 -17 876 92 l 608 267 b 474 160 608 207 572 160 b 326 319 368 160 326 218 l 876 319 l 876 367 b 463 750 876 631 726 750 z m 474 574 b 597 450 551 574 597 526 l 328 450 b 474 574 338 526 381 574 z m 597 822 l 468 1007 l 201 1007 l 199 1001 l 421 822 z "},"é":{"ha":926,"x_min":0,"x_max":0,"o":"m 463 750 b 50 367 213 750 50 624 b 479 -17 50 103 215 -17 b 876 267 743 -17 876 92 l 608 267 b 474 160 608 207 572 160 b 326 319 368 160 326 218 l 876 319 l 876 367 b 463 750 876 631 726 750 z m 474 574 b 597 450 551 574 597 526 l 328 450 b 474 574 338 526 381 574 z m 728 1001 l 725 1007 l 458 1007 l 329 822 l 507 822 z "},"ê":{"ha":926,"x_min":0,"x_max":0,"o":"m 463 750 b 50 367 213 750 50 624 b 479 -17 50 103 215 -17 b 876 267 743 -17 876 92 l 608 267 b 474 160 608 207 572 160 b 326 319 368 160 326 218 l 876 319 l 876 367 b 463 750 876 631 726 750 z m 474 574 b 597 450 551 574 597 526 l 328 450 b 474 574 338 526 381 574 z m 551 1007 l 375 1007 l 181 806 l 358 806 l 463 913 l 565 806 l 746 806 z "},"ë":{"ha":926,"x_min":0,"x_max":0,"o":"m 463 750 b 50 367 213 750 50 624 b 479 -17 50 103 215 -17 b 876 267 743 -17 876 92 l 608 267 b 474 160 608 207 572 160 b 326 319 368 160 326 218 l 876 319 l 876 367 b 463 750 876 631 726 750 z m 474 574 b 597 450 551 574 597 526 l 328 450 b 474 574 338 526 381 574 z m 722 1007 l 511 1007 l 511 814 l 722 814 z m 415 1007 l 204 1007 l 204 814 l 415 814 z "},"ì":{"ha":463,"x_min":0,"x_max":0,"o":"m 369 0 l 369 733 l 93 733 l 93 0 z m 365 822 l 236 1007 l -31 1007 l -33 1001 l 189 822 z "},"í":{"ha":463,"x_min":0,"x_max":0,"o":"m 369 0 l 369 733 l 93 733 l 93 0 z m 496 1001 l 493 1007 l 226 1007 l 97 822 l 275 822 z "},"î":{"ha":463,"x_min":0,"x_max":0,"o":"m 369 733 l 93 733 l 93 0 l 369 0 z m 319 1007 l 143 1007 l -51 806 l 126 806 l 231 913 l 333 806 l 514 806 z "},"ï":{"ha":463,"x_min":0,"x_max":0,"o":"m 369 733 l 93 733 l 93 0 l 369 0 z m 490 1007 l 279 1007 l 279 814 l 490 814 z m 183 1007 l -28 1007 l -28 814 l 183 814 z "},"ð":{"ha":926,"x_min":0,"x_max":0,"o":"m 229 1007 l 228 1001 b 343 911 254 985 296 954 l 207 896 l 207 788 l 436 814 b 506 717 460 783 483 751 b 414 728 476 725 442 728 b 50 367 189 728 50 581 b 463 -17 50 110 213 -17 b 876 367 713 -17 876 110 b 697 844 876 582 788 739 l 792 856 l 792 964 l 599 942 b 504 1007 544 986 504 1007 z m 463 563 b 600 406 560 563 600 503 l 600 326 b 463 171 600 229 560 171 b 326 326 365 171 326 229 l 326 406 b 463 563 326 503 365 563 z "},"ñ":{"ha":926,"x_min":0,"x_max":0,"o":"m 589 750 b 328 622 485 750 385 700 l 310 733 l 83 733 l 83 0 l 360 0 l 360 431 b 475 546 360 493 406 546 b 568 442 536 546 568 503 l 568 0 l 844 0 l 844 475 b 589 750 844 649 763 750 z m 660 1007 b 589 951 649 975 625 951 b 349 1007 515 951 438 1007 b 154 808 232 1007 154 908 l 267 808 b 338 864 278 840 301 864 b 578 808 411 864 489 808 b 772 1007 694 808 772 907 z "},"ò":{"ha":926,"x_min":0,"x_max":0,"o":"m 463 750 b 50 367 213 750 50 624 b 463 -17 50 110 213 -17 b 876 367 713 -17 876 110 b 463 750 876 624 713 750 z m 463 563 b 600 406 560 563 600 503 l 600 326 b 463 171 600 229 560 171 b 326 326 365 171 326 229 l 326 406 b 463 563 326 503 365 563 z m 597 822 l 468 1007 l 201 1007 l 199 1001 l 421 822 z "},"ó":{"ha":926,"x_min":0,"x_max":0,"o":"m 463 750 b 50 367 213 750 50 624 b 463 -17 50 110 213 -17 b 876 367 713 -17 876 110 b 463 750 876 624 713 750 z m 463 563 b 600 406 560 563 600 503 l 600 326 b 463 171 600 229 560 171 b 326 326 365 171 326 229 l 326 406 b 463 563 326 503 365 563 z m 728 1001 l 725 1007 l 458 1007 l 329 822 l 507 822 z "},"ô":{"ha":926,"x_min":0,"x_max":0,"o":"m 463 750 b 50 367 213 750 50 624 b 463 -17 50 110 213 -17 b 876 367 713 -17 876 110 b 463 750 876 624 713 750 z m 463 563 b 600 406 560 563 600 503 l 600 326 b 463 171 600 229 560 171 b 326 326 365 171 326 229 l 326 406 b 463 563 326 503 365 563 z m 551 1007 l 375 1007 l 181 806 l 358 806 l 463 913 l 565 806 l 746 806 z "},"õ":{"ha":926,"x_min":0,"x_max":0,"o":"m 463 750 b 50 367 213 750 50 624 b 463 -17 50 110 213 -17 b 876 367 713 -17 876 110 b 463 750 876 624 713 750 z m 463 563 b 600 406 560 563 600 503 l 600 326 b 463 171 600 229 560 171 b 326 326 365 171 326 229 l 326 406 b 463 563 326 503 365 563 z m 660 1007 b 589 951 649 975 625 951 b 349 1007 515 951 438 1007 b 154 808 232 1007 154 908 l 267 808 b 338 864 278 840 301 864 b 578 808 411 864 489 808 b 772 1007 694 808 772 907 z "},"ö":{"ha":926,"x_min":0,"x_max":0,"o":"m 463 750 b 50 367 213 750 50 624 b 463 -17 50 110 213 -17 b 876 367 713 -17 876 110 b 463 750 876 624 713 750 z m 463 563 b 600 406 560 563 600 503 l 600 326 b 463 171 600 229 560 171 b 326 326 365 171 326 229 l 326 406 b 463 563 326 503 365 563 z m 722 1007 l 511 1007 l 511 814 l 722 814 z m 415 1007 l 204 1007 l 204 814 l 415 814 z "},"÷":{"ha":917,"x_min":0,"x_max":0,"o":"m 825 456 l 92 456 l 92 272 l 825 272 z m 551 203 l 369 203 l 369 21 l 551 21 z m 551 706 l 369 706 l 369 524 l 551 524 z "},"ø":{"ha":926,"x_min":0,"x_max":0,"o":"m 864 776 l 736 776 l 681 707 b 463 750 619 736 546 750 b 50 367 213 750 50 624 b 171 71 50 233 94 135 l 64 -62 l 192 -62 l 257 19 b 463 -17 315 -4 385 -17 b 876 367 713 -17 876 110 b 765 653 876 493 836 589 z m 597 444 b 600 406 599 432 600 419 l 600 326 b 463 171 600 229 560 171 b 390 186 433 171 410 176 z m 463 563 b 546 540 497 563 525 554 l 331 271 b 326 326 328 288 326 306 l 326 406 b 463 563 326 503 365 563 z "},"ù":{"ha":926,"x_min":0,"x_max":0,"o":"m 842 0 l 842 733 l 565 733 l 565 303 b 450 188 565 240 519 188 b 357 292 389 188 357 231 l 357 733 l 81 733 l 81 258 b 336 -17 81 85 163 -17 b 597 111 440 -17 540 32 l 615 0 z m 597 822 l 468 1007 l 201 1007 l 199 1001 l 421 822 z "},"ú":{"ha":926,"x_min":0,"x_max":0,"o":"m 842 0 l 842 733 l 565 733 l 565 303 b 450 188 565 240 519 188 b 357 292 389 188 357 231 l 357 733 l 81 733 l 81 258 b 336 -17 81 85 163 -17 b 597 111 440 -17 540 32 l 615 0 z m 728 1001 l 725 1007 l 458 1007 l 329 822 l 507 822 z "},"û":{"ha":926,"x_min":0,"x_max":0,"o":"m 842 733 l 565 733 l 565 303 b 450 188 565 240 519 188 b 357 292 389 188 357 231 l 357 733 l 81 733 l 81 258 b 336 -17 81 85 163 -17 b 597 111 440 -17 540 32 l 615 0 l 842 0 z m 551 1007 l 375 1007 l 181 806 l 358 806 l 463 913 l 565 806 l 746 806 z "},"ü":{"ha":926,"x_min":0,"x_max":0,"o":"m 842 733 l 565 733 l 565 303 b 450 188 565 240 519 188 b 357 292 389 188 357 231 l 357 733 l 81 733 l 81 258 b 336 -17 81 85 163 -17 b 597 111 440 -17 540 32 l 615 0 l 842 0 z m 722 1007 l 511 1007 l 511 814 l 722 814 z m 415 1007 l 204 1007 l 204 814 l 415 814 z "},"ý":{"ha":849,"x_min":0,"x_max":0,"o":"m 849 733 l 576 733 l 447 246 l 438 246 l 297 733 l 0 733 l 292 0 b 168 -101 285 -36 265 -101 l 57 -101 l 57 -267 b 217 -292 92 -279 150 -292 b 588 22 431 -292 521 -160 z m 690 1001 l 688 1007 l 419 1007 l 290 822 l 468 822 z "},"þ":{"ha":926,"x_min":0,"x_max":0,"o":"m 361 1007 l 85 1007 l 85 -274 l 361 -274 l 361 67 b 567 -17 414 10 483 -17 b 876 365 761 -17 876 110 b 567 750 876 624 761 750 b 361 664 483 750 414 722 z m 481 546 b 600 404 567 546 600 490 l 600 331 b 481 188 600 244 567 188 b 358 344 394 188 358 258 l 358 390 b 481 546 358 476 394 546 z "},"ÿ":{"ha":849,"x_min":0,"x_max":0,"o":"m 849 733 l 576 733 l 447 246 l 438 246 l 297 733 l 0 733 l 292 0 b 168 -101 285 -36 265 -101 l 57 -101 l 57 -267 b 217 -292 92 -279 150 -292 b 588 22 431 -292 521 -160 z m 683 1007 l 472 1007 l 472 814 l 683 814 z m 376 1007 l 167 1007 l 167 814 l 376 814 z "},"Ā":{"ha":1081,"x_min":0,"x_max":0,"o":"m 719 956 l 363 956 l 14 0 l 328 0 l 368 135 l 703 135 l 743 0 l 1068 0 z m 539 689 l 639 349 l 432 349 l 533 689 z m 760 1201 l 321 1201 l 321 1063 l 760 1063 z "},"ā":{"ha":926,"x_min":0,"x_max":0,"o":"m 446 750 b 63 524 194 750 63 658 b 64 504 63 517 63 511 l 336 504 l 336 510 b 442 574 336 558 393 574 b 549 486 501 574 549 546 l 549 450 b 42 189 228 450 42 408 b 300 -17 42 36 147 -17 b 571 75 428 -17 510 26 b 775 -17 596 19 664 -17 b 919 11 868 -17 919 11 l 919 171 l 869 171 b 825 225 839 171 825 194 l 825 511 b 446 750 825 692 647 750 z m 549 257 b 413 156 549 197 483 156 b 318 225 365 156 318 168 b 549 319 318 279 385 319 z m 683 979 l 243 979 l 243 840 l 683 840 z "},"Ă":{"ha":1081,"x_min":0,"x_max":0,"o":"m 719 956 l 363 956 l 14 0 l 328 0 l 368 135 l 703 135 l 743 0 l 1068 0 z m 539 689 l 639 349 l 432 349 l 533 689 z m 665 1229 b 540 1160 660 1200 608 1160 b 418 1229 472 1160 424 1200 l 285 1229 b 540 1029 285 1136 379 1029 b 797 1229 697 1029 797 1136 z "},"ă":{"ha":926,"x_min":0,"x_max":0,"o":"m 446 750 b 63 524 194 750 63 658 b 64 504 63 517 63 511 l 336 504 l 336 510 b 442 574 336 558 393 574 b 549 486 501 574 549 546 l 549 450 b 42 189 228 450 42 408 b 300 -17 42 36 147 -17 b 571 75 428 -17 510 26 b 775 -17 596 19 664 -17 b 919 11 868 -17 919 11 l 919 171 l 869 171 b 825 225 839 171 825 194 l 825 511 b 446 750 825 692 647 750 z m 549 257 b 413 156 549 197 483 156 b 318 225 365 156 318 168 b 549 319 318 279 385 319 z m 588 1007 b 463 938 582 978 532 938 b 378 961 429 938 400 947 b 340 1007 357 975 343 993 l 207 1007 b 463 807 207 914 303 807 b 719 1007 621 807 719 914 z "},"Ą":{"ha":1081,"x_min":0,"x_max":0,"o":"m 719 956 l 363 956 l 14 0 l 328 0 l 368 135 l 703 135 l 743 0 l 753 0 b 697 -135 725 -35 697 -76 b 874 -293 697 -249 783 -293 b 1007 -272 919 -293 964 -286 l 1007 -167 l 949 -167 b 865 -96 886 -167 865 -132 b 888 0 865 -60 876 -22 l 1068 0 z m 539 689 l 639 349 l 432 349 l 533 689 z "},"ą":{"ha":926,"x_min":0,"x_max":0,"o":"m 446 750 b 63 524 194 750 63 658 b 64 504 63 517 63 511 l 336 504 l 336 510 b 442 574 336 558 393 574 b 549 486 501 574 549 546 l 549 450 b 42 189 228 450 42 408 b 300 -17 42 36 147 -17 b 571 75 428 -17 510 26 b 651 3 585 44 611 19 b 593 -135 624 -32 593 -74 b 769 -293 593 -249 679 -293 b 901 -272 814 -293 860 -286 l 901 -167 l 843 -167 b 760 -96 781 -167 760 -132 b 775 -17 760 -68 767 -39 b 919 11 868 -17 919 11 l 919 171 l 869 171 b 825 225 839 171 825 194 l 825 511 b 446 750 825 692 647 750 z m 549 257 b 413 156 549 197 483 156 b 318 225 365 156 318 168 b 549 319 318 279 385 319 z "},"Ć":{"ha":1081,"x_min":0,"x_max":0,"o":"m 558 972 b 63 478 232 972 63 804 b 558 -17 63 151 232 -17 b 1018 388 850 -17 1018 125 l 735 388 b 554 213 735 278 675 213 b 376 433 429 213 376 303 l 376 522 b 557 743 376 653 426 743 b 725 563 667 743 725 672 l 1018 563 b 558 972 1018 829 836 972 z m 819 1224 l 817 1229 l 550 1229 l 421 1044 l 599 1044 z "},"ć":{"ha":926,"x_min":0,"x_max":0,"o":"m 463 750 b 50 367 213 750 50 624 b 463 -17 50 110 213 -17 b 867 299 686 -17 867 75 l 610 299 b 468 171 610 208 558 171 b 326 326 367 171 326 229 l 326 406 b 463 563 326 503 365 563 b 599 438 549 563 599 524 l 867 438 b 463 750 867 661 686 750 z m 728 1001 l 725 1007 l 458 1007 l 329 822 l 507 822 z "},"Ĉ":{"ha":1081,"x_min":0,"x_max":0,"o":"m 558 972 b 63 478 232 972 63 804 b 558 -17 63 151 232 -17 b 1018 388 850 -17 1018 125 l 735 388 b 554 213 735 278 675 213 b 376 433 429 213 376 303 l 376 522 b 557 743 376 653 426 743 b 725 563 667 743 725 672 l 1018 563 b 558 972 1018 829 836 972 z m 629 1229 l 451 1229 l 258 1028 l 436 1028 l 539 1135 l 642 1028 l 822 1028 z "},"ĉ":{"ha":926,"x_min":0,"x_max":0,"o":"m 463 750 b 50 367 213 750 50 624 b 463 -17 50 110 213 -17 b 867 299 686 -17 867 75 l 610 299 b 468 171 610 208 558 171 b 326 326 367 171 326 229 l 326 406 b 463 563 326 503 365 563 b 599 438 549 563 599 524 l 867 438 b 463 750 867 661 686 750 z m 551 1007 l 375 1007 l 181 806 l 358 806 l 463 913 l 565 806 l 746 806 z "},"Ċ":{"ha":1081,"x_min":0,"x_max":0,"o":"m 558 972 b 63 478 232 972 63 804 b 558 -17 63 151 232 -17 b 1018 388 850 -17 1018 125 l 735 388 b 554 213 735 278 675 213 b 376 433 429 213 376 303 l 376 522 b 557 743 376 653 426 743 b 725 563 667 743 725 672 l 1018 563 b 558 972 1018 829 836 972 z m 646 1229 l 435 1229 l 435 1036 l 646 1036 z "},"ċ":{"ha":926,"x_min":0,"x_max":0,"o":"m 463 750 b 50 367 213 750 50 624 b 463 -17 50 110 213 -17 b 867 299 686 -17 867 75 l 610 299 b 468 171 610 208 558 171 b 326 326 367 171 326 229 l 326 406 b 463 563 326 503 365 563 b 599 438 549 563 599 524 l 867 438 b 463 750 867 661 686 750 z m 569 1007 l 357 1007 l 357 814 l 569 814 z "},"Č":{"ha":1081,"x_min":0,"x_max":0,"o":"m 558 972 b 63 478 232 972 63 804 b 558 -17 63 151 232 -17 b 1018 388 850 -17 1018 125 l 735 388 b 554 213 735 278 675 213 b 376 433 429 213 376 303 l 376 522 b 557 743 376 653 426 743 b 725 563 667 743 725 672 l 1018 563 b 558 972 1018 829 836 972 z m 822 1229 l 642 1229 l 539 1122 l 436 1229 l 258 1229 l 451 1028 l 629 1028 z "},"č":{"ha":926,"x_min":0,"x_max":0,"o":"m 463 750 b 50 367 213 750 50 624 b 463 -17 50 110 213 -17 b 867 299 686 -17 867 75 l 610 299 b 468 171 610 208 558 171 b 326 326 367 171 326 229 l 326 406 b 463 563 326 503 365 563 b 599 438 549 563 599 524 l 867 438 b 463 750 867 661 686 750 z m 746 1007 l 565 1007 l 463 900 l 358 1007 l 181 1007 l 375 806 l 551 806 z "},"Ď":{"ha":1081,"x_min":0,"x_max":0,"o":"m 103 956 l 103 0 l 517 0 b 1018 478 843 0 1018 151 b 517 956 1018 804 843 956 z m 511 726 b 704 519 646 726 704 650 l 704 436 b 511 229 704 306 646 229 l 410 229 l 410 726 z m 772 1229 l 592 1229 l 489 1122 l 385 1229 l 207 1229 l 401 1028 l 579 1028 z "},"ď":{"ha":1172,"x_min":0,"x_max":0,"o":"m 842 1007 l 565 1007 l 565 665 b 360 750 513 722 442 750 b 50 368 165 750 50 624 b 360 -17 50 110 165 -17 b 593 104 458 -17 539 22 l 617 0 l 842 0 z m 446 546 b 568 389 532 546 568 475 l 568 343 b 446 188 568 257 532 188 b 326 329 360 188 326 243 l 326 403 b 446 546 326 489 360 546 z m 1090 956 l 910 956 l 910 796 l 979 796 l 922 668 l 1015 668 l 1090 806 z "},"Đ":{"ha":1081,"x_min":0,"x_max":0,"o":"m 1 422 l 103 422 l 103 0 l 517 0 b 1018 478 843 0 1018 151 b 517 956 1018 804 843 956 l 103 956 l 103 558 l 1 558 z m 544 422 l 544 558 l 410 558 l 410 726 l 511 726 b 704 519 646 726 704 650 l 704 436 b 511 229 704 306 646 229 l 410 229 l 410 422 z "},"đ":{"ha":926,"x_min":0,"x_max":0,"o":"m 842 1007 l 565 1007 l 565 928 l 467 928 l 467 799 l 565 799 l 565 665 b 360 750 513 722 442 750 b 50 368 165 750 50 624 b 360 -17 50 110 165 -17 b 593 104 458 -17 539 22 l 617 0 l 842 0 l 842 799 l 926 799 l 926 928 l 842 928 z m 446 546 b 568 389 532 546 568 475 l 568 343 b 446 188 568 257 532 188 b 326 329 360 188 326 243 l 326 403 b 446 546 326 489 360 546 z "},"Ē":{"ha":1003,"x_min":0,"x_max":0,"o":"m 756 1201 l 317 1201 l 317 1063 l 756 1063 z m 939 0 l 939 229 l 410 229 l 410 375 l 854 375 l 854 594 l 410 594 l 410 726 l 929 726 l 929 956 l 103 956 l 103 0 z "},"ē":{"ha":926,"x_min":0,"x_max":0,"o":"m 463 750 b 50 367 213 750 50 624 b 479 -17 50 103 215 -17 b 876 267 743 -17 876 92 l 608 267 b 474 160 608 207 572 160 b 326 319 368 160 326 218 l 876 319 l 876 367 b 463 750 876 631 726 750 z m 474 574 b 597 450 551 574 597 526 l 328 450 b 474 574 338 526 381 574 z m 683 979 l 243 979 l 243 840 l 683 840 z "},"Ĕ":{"ha":1003,"x_min":0,"x_max":0,"o":"m 660 1229 b 535 1160 654 1200 604 1160 b 413 1229 467 1160 418 1200 l 279 1229 b 535 1029 279 1136 375 1029 b 792 1229 693 1029 792 1136 z m 939 0 l 939 229 l 410 229 l 410 375 l 854 375 l 854 594 l 410 594 l 410 726 l 929 726 l 929 956 l 103 956 l 103 0 z "},"ĕ":{"ha":926,"x_min":0,"x_max":0,"o":"m 463 750 b 50 367 213 750 50 624 b 479 -17 50 103 215 -17 b 876 267 743 -17 876 92 l 608 267 b 474 160 608 207 572 160 b 326 319 368 160 326 218 l 876 319 l 876 367 b 463 750 876 631 726 750 z m 474 574 b 597 450 551 574 597 526 l 328 450 b 474 574 338 526 381 574 z m 588 1007 b 463 938 582 978 532 938 b 378 961 429 938 400 947 b 340 1007 357 975 343 993 l 207 1007 b 463 807 207 914 303 807 b 719 1007 621 807 719 914 z "},"Ė":{"ha":1003,"x_min":0,"x_max":0,"o":"m 642 1229 l 431 1229 l 431 1036 l 642 1036 z m 939 0 l 939 229 l 410 229 l 410 375 l 854 375 l 854 594 l 410 594 l 410 726 l 929 726 l 929 956 l 103 956 l 103 0 z "},"ė":{"ha":926,"x_min":0,"x_max":0,"o":"m 463 750 b 50 367 213 750 50 624 b 479 -17 50 103 215 -17 b 876 267 743 -17 876 92 l 608 267 b 474 160 608 207 572 160 b 326 319 368 160 326 218 l 876 319 l 876 367 b 463 750 876 631 726 750 z m 474 574 b 597 450 551 574 597 526 l 328 450 b 474 574 338 526 381 574 z m 569 1007 l 357 1007 l 357 814 l 569 814 z "},"Ę":{"ha":1003,"x_min":0,"x_max":0,"o":"m 929 956 l 103 956 l 103 0 l 738 0 b 682 -135 710 -35 682 -76 b 857 -293 682 -249 768 -293 b 990 -272 903 -293 947 -286 l 990 -167 l 932 -167 b 849 -96 869 -167 849 -132 b 871 0 849 -60 861 -22 l 939 0 l 939 229 l 410 229 l 410 375 l 854 375 l 854 594 l 410 594 l 410 726 l 929 726 z "},"ę":{"ha":926,"x_min":0,"x_max":0,"o":"m 463 750 b 50 367 213 750 50 624 b 479 -17 50 103 215 -17 l 521 -17 b 476 -135 497 -47 476 -85 b 653 -293 476 -249 563 -293 b 785 -272 697 -293 743 -286 l 785 -167 l 726 -167 b 643 -96 665 -167 643 -132 b 669 7 643 -57 658 -12 b 876 267 807 49 876 140 l 608 267 b 474 160 608 207 572 160 b 326 319 368 160 326 218 l 876 319 l 876 367 b 463 750 876 631 726 750 z m 474 574 b 597 450 551 574 597 526 l 328 450 b 474 574 338 526 381 574 z "},"Ě":{"ha":1003,"x_min":0,"x_max":0,"o":"m 818 1229 l 638 1229 l 535 1122 l 432 1229 l 254 1229 l 447 1028 l 625 1028 z m 939 0 l 939 229 l 410 229 l 410 375 l 854 375 l 854 594 l 410 594 l 410 726 l 929 726 l 929 956 l 103 956 l 103 0 z "},"ě":{"ha":926,"x_min":0,"x_max":0,"o":"m 463 750 b 50 367 213 750 50 624 b 479 -17 50 103 215 -17 b 876 267 743 -17 876 92 l 608 267 b 474 160 608 207 572 160 b 326 319 368 160 326 218 l 876 319 l 876 367 b 463 750 876 631 726 750 z m 474 574 b 597 450 551 574 597 526 l 328 450 b 474 574 338 526 381 574 z m 746 1007 l 565 1007 l 463 900 l 358 1007 l 181 1007 l 375 806 l 551 806 z "},"Ĝ":{"ha":1157,"x_min":0,"x_max":0,"o":"m 583 972 b 63 478 253 972 63 804 b 539 -17 63 151 221 -17 b 881 94 685 -17 794 21 l 911 0 l 1069 0 l 1069 533 l 560 533 l 560 339 l 776 339 b 596 213 776 263 693 213 b 376 433 450 213 376 294 l 376 522 b 596 743 376 661 450 743 b 776 610 693 743 776 692 l 1069 610 b 583 972 1069 850 851 972 z m 667 1229 l 490 1229 l 296 1028 l 474 1028 l 578 1135 l 681 1028 l 861 1028 z "},"ĝ":{"ha":926,"x_min":0,"x_max":0,"o":"m 724 871 b 572 742 724 871 742 742 b 451 750 542 747 507 750 b 74 513 246 750 74 694 b 192 338 74 442 125 381 b 51 181 114 318 51 254 b 124 51 51 128 79 82 b 7 -112 63 24 7 -36 b 192 -292 7 -214 90 -292 l 600 -292 b 908 -40 764 -292 908 -204 b 661 194 908 96 831 194 l 411 194 b 324 238 340 194 324 214 b 411 278 324 261 347 278 l 517 278 b 825 514 681 278 825 350 b 739 672 825 575 793 632 b 908 871 844 700 908 751 z m 558 0 b 632 -68 599 0 632 -25 b 558 -137 632 -111 599 -137 l 342 -137 b 269 -67 301 -137 269 -110 b 342 0 269 -24 301 0 z m 449 606 b 556 514 514 606 556 576 b 449 422 556 451 514 422 b 344 514 383 422 344 451 b 449 606 344 576 390 606 z m 514 1007 l 336 1007 l 169 806 l 347 806 l 424 913 l 499 806 l 679 806 z "},"Ğ":{"ha":1157,"x_min":0,"x_max":0,"o":"m 583 972 b 63 478 253 972 63 804 b 539 -17 63 151 221 -17 b 881 94 685 -17 794 21 l 911 0 l 1069 0 l 1069 533 l 560 533 l 560 339 l 776 339 b 596 213 776 263 693 213 b 376 433 450 213 376 294 l 376 522 b 596 743 376 661 450 743 b 776 610 693 743 776 692 l 1069 610 b 583 972 1069 850 851 972 z m 703 1229 b 578 1160 697 1200 647 1160 b 456 1229 510 1160 461 1200 l 322 1229 b 578 1029 322 1136 418 1029 b 835 1229 736 1029 835 1136 z "},"ğ":{"ha":926,"x_min":0,"x_max":0,"o":"m 724 871 b 572 742 724 871 707 742 b 451 750 542 747 507 750 b 74 513 246 750 74 694 b 192 338 74 442 125 381 b 51 181 114 318 51 254 b 124 51 51 128 79 82 b 7 -112 63 24 7 -36 b 192 -292 7 -214 90 -292 l 600 -292 b 908 -40 764 -292 908 -204 b 661 194 908 96 831 194 l 411 194 b 324 238 340 194 324 214 b 411 278 324 261 347 278 l 517 278 b 825 514 681 278 825 350 b 739 672 825 575 793 632 b 908 871 844 700 908 751 z m 558 0 b 632 -68 599 0 632 -25 b 558 -137 632 -111 599 -137 l 342 -137 b 269 -67 301 -137 269 -110 b 342 0 269 -24 301 0 z m 449 606 b 556 514 514 606 556 576 b 449 422 556 451 514 422 b 344 514 383 422 344 451 b 449 606 344 576 390 606 z m 582 1007 b 458 938 578 978 526 938 b 374 961 425 938 396 947 b 336 1007 353 975 339 993 l 203 1007 b 458 807 203 914 297 807 b 715 1007 615 807 715 914 z "},"Ġ":{"ha":1157,"x_min":0,"x_max":0,"o":"m 583 972 b 63 478 253 972 63 804 b 539 -17 63 151 221 -17 b 881 94 685 -17 794 21 l 911 0 l 1069 0 l 1069 533 l 560 533 l 560 339 l 776 339 b 596 213 776 263 693 213 b 376 433 450 213 376 294 l 376 522 b 596 743 376 661 450 743 b 776 610 693 743 776 692 l 1069 610 b 583 972 1069 850 851 972 z m 685 1229 l 472 1229 l 472 1036 l 685 1036 z "},"ġ":{"ha":926,"x_min":0,"x_max":0,"o":"m 681 871 b 572 742 681 871 682 810 b 451 750 542 747 507 750 b 74 513 246 750 74 694 b 192 338 74 442 125 381 b 51 181 114 318 51 254 b 124 51 51 128 79 82 b 7 -112 63 24 7 -36 b 192 -292 7 -214 90 -292 l 600 -292 b 908 -40 764 -292 908 -204 b 661 194 908 96 831 194 l 411 194 b 324 238 340 194 324 214 b 411 278 324 261 347 278 l 517 278 b 825 514 681 278 825 350 b 739 672 825 575 793 632 b 908 871 844 700 908 751 z m 558 0 b 632 -68 599 0 632 -25 b 558 -137 632 -111 599 -137 l 342 -137 b 269 -67 301 -137 269 -110 b 342 0 269 -24 301 0 z m 449 606 b 556 514 514 606 556 576 b 449 422 556 451 514 422 b 344 514 383 422 344 451 b 449 606 344 576 390 606 z m 526 1007 l 315 1007 l 315 814 l 526 814 z "},"Ģ":{"ha":1157,"x_min":0,"x_max":0,"o":"m 583 972 b 63 478 253 972 63 804 b 539 -17 63 151 221 -17 b 881 94 685 -17 794 21 l 911 0 l 1069 0 l 1069 533 l 560 533 l 560 339 l 776 339 b 596 213 776 263 693 213 b 376 433 450 213 376 294 l 376 522 b 596 743 376 661 450 743 b 776 610 693 743 776 692 l 1069 610 b 583 972 1069 850 851 972 z m 668 -82 l 489 -82 l 489 -243 l 557 -243 l 500 -371 l 593 -371 l 668 -233 z "},"ģ":{"ha":926,"x_min":0,"x_max":0,"o":"m 681 871 b 572 742 681 871 682 810 b 451 750 542 747 507 750 b 74 513 246 750 74 694 b 192 338 74 442 125 381 b 51 181 114 318 51 254 b 124 51 51 128 79 82 b 7 -112 63 24 7 -36 b 192 -292 7 -214 90 -292 l 600 -292 b 908 -40 764 -292 908 -204 b 661 194 908 96 831 194 l 411 194 b 324 238 340 194 324 214 b 411 278 324 261 347 278 l 517 278 b 825 514 681 278 825 350 b 739 672 825 575 793 632 b 908 871 844 700 908 751 z m 358 794 l 539 794 l 539 956 l 469 956 l 526 1083 l 433 1083 l 358 946 z m 558 0 b 632 -68 599 0 632 -25 b 558 -137 632 -111 599 -137 l 342 -137 b 269 -67 301 -137 269 -110 b 342 0 269 -24 301 0 z m 449 606 b 556 514 514 606 556 576 b 449 422 556 451 514 422 b 344 514 383 422 344 451 b 449 606 344 576 390 606 z "},"Ĥ":{"ha":1157,"x_min":0,"x_max":0,"o":"m 1054 956 l 747 956 l 747 607 l 410 607 l 410 956 l 103 956 l 103 0 l 410 0 l 410 363 l 747 363 l 747 0 l 1054 0 z m 667 1229 l 490 1229 l 296 1028 l 474 1028 l 578 1135 l 681 1028 l 861 1028 z "},"ĥ":{"ha":926,"x_min":0,"x_max":0,"o":"m 360 1007 l 83 1007 l 83 0 l 360 0 l 360 431 b 475 546 360 493 406 546 b 568 442 536 546 568 503 l 568 0 l 844 0 l 844 475 b 589 750 844 649 763 750 b 360 657 501 750 418 715 z m 311 1229 l 133 1229 l -60 1028 l 117 1028 l 221 1135 l 324 1028 l 504 1028 z "},"Ħ":{"ha":1157,"x_min":0,"x_max":0,"o":"m 1154 697 l 1154 833 l 1054 833 l 1054 956 l 747 956 l 747 833 l 410 833 l 410 956 l 103 956 l 103 833 l 1 833 l 1 697 l 103 697 l 103 0 l 410 0 l 410 349 l 747 349 l 747 0 l 1054 0 l 1054 697 z m 410 593 l 410 697 l 747 697 l 747 593 z "},"ħ":{"ha":926,"x_min":0,"x_max":0,"o":"m 360 1007 l 83 1007 l 83 928 l -3 928 l -3 799 l 83 799 l 83 0 l 360 0 l 360 431 b 475 546 360 493 406 546 b 568 442 536 546 568 503 l 568 0 l 844 0 l 844 475 b 589 750 844 649 763 750 b 360 657 501 750 418 715 l 360 799 l 457 799 l 457 928 l 360 928 z "},"Ĩ":{"ha":540,"x_min":0,"x_max":0,"o":"m 424 956 l 117 956 l 117 0 l 424 0 z m 467 1229 b 397 1174 457 1197 432 1174 b 157 1229 322 1174 246 1229 b -37 1031 40 1229 -37 1131 l 75 1031 b 144 1086 85 1063 110 1086 b 385 1031 219 1086 296 1031 b 579 1229 501 1031 579 1129 z "},"ĩ":{"ha":463,"x_min":0,"x_max":0,"o":"m 369 733 l 93 733 l 93 0 l 369 0 z m 428 1007 b 357 951 417 975 393 951 b 117 1007 283 951 206 1007 b -78 808 0 1007 -78 908 l 35 808 b 106 864 46 840 69 864 b 346 808 179 864 257 808 b 540 1007 463 808 540 907 z "},"Ī":{"ha":540,"x_min":0,"x_max":0,"o":"m 424 956 l 117 956 l 117 0 l 424 0 z m 490 1201 l 51 1201 l 51 1063 l 490 1063 z "},"ī":{"ha":463,"x_min":0,"x_max":0,"o":"m 369 733 l 93 733 l 93 0 l 369 0 z m 451 979 l 11 979 l 11 840 l 451 840 z "},"Ĭ":{"ha":540,"x_min":0,"x_max":0,"o":"m 424 956 l 117 956 l 117 0 l 424 0 z m 394 1229 b 269 1160 389 1200 339 1160 b 147 1229 203 1160 153 1200 l 14 1229 b 269 1029 14 1136 110 1029 b 526 1229 428 1029 526 1136 z "},"ĭ":{"ha":463,"x_min":0,"x_max":0,"o":"m 369 733 l 93 733 l 93 0 l 369 0 z m 356 1007 b 231 938 350 978 300 938 b 146 961 197 938 168 947 b 108 1007 125 975 111 993 l -25 1007 b 231 807 -25 914 71 807 b 488 1007 389 807 488 914 z "},"Į":{"ha":540,"x_min":0,"x_max":0,"o":"m 424 956 l 117 956 l 117 0 l 282 0 b 226 -135 254 -35 226 -76 b 401 -293 226 -249 313 -293 b 535 -272 447 -293 492 -286 l 535 -167 l 476 -167 b 393 -96 414 -167 393 -132 b 415 0 393 -60 406 -22 l 424 0 z "},"į":{"ha":463,"x_min":0,"x_max":0,"o":"m 369 733 l 93 733 l 93 0 l 203 0 b 147 -135 175 -35 147 -76 b 324 -293 147 -249 233 -293 b 457 -272 369 -293 414 -286 l 457 -167 l 399 -167 b 315 -96 336 -167 315 -132 b 338 0 315 -60 326 -22 l 369 0 z m 338 1007 l 125 1007 l 125 814 l 338 814 z "},"İ":{"ha":540,"x_min":0,"x_max":0,"o":"m 424 956 l 117 956 l 117 0 l 424 0 z m 376 1229 l 165 1229 l 165 1036 l 376 1036 z "},"ı":{"ha":463,"x_min":0,"x_max":0,"o":"m 369 733 l 93 733 l 93 0 l 369 0 z "},"Ĳ":{"ha":1428,"x_min":0,"x_max":0,"o":"m 1325 956 l 1018 956 l 1018 333 b 919 213 1018 244 985 213 b 821 333 854 213 821 244 l 821 344 l 533 344 l 533 332 b 929 -17 533 88 682 -17 b 1325 332 1176 -17 1325 88 z m 424 956 l 117 956 l 117 0 l 424 0 z "},"ĳ":{"ha":928,"x_min":0,"x_max":0,"o":"m 835 733 l 558 733 l 558 -12 b 481 -101 558 -69 536 -101 l 408 -101 l 408 -267 b 581 -292 451 -282 536 -292 b 835 -40 758 -292 835 -218 z m 835 1007 l 558 1007 l 558 819 l 835 819 z m 369 733 l 93 733 l 93 0 l 369 0 z m 369 1007 l 93 1007 l 93 819 l 369 819 z "},"Ĵ":{"ha":926,"x_min":0,"x_max":0,"o":"m 824 956 l 517 956 l 517 333 b 418 213 517 244 483 213 b 319 333 353 213 319 244 l 319 344 l 32 344 l 32 332 b 428 -17 32 88 181 -17 b 824 332 675 -17 824 88 z m 744 1229 l 567 1229 l 374 1028 l 550 1028 l 654 1135 l 757 1028 l 938 1028 z "},"ĵ":{"ha":463,"x_min":0,"x_max":0,"o":"m 369 733 l 93 733 l 93 -12 b 15 -101 93 -69 71 -101 l -57 -101 l -57 -267 b 115 -292 -14 -282 71 -292 b 369 -40 293 -292 369 -218 z m 322 1007 l 144 1007 l -49 806 l 129 806 l 232 913 l 335 806 l 515 806 z "},"Ķ":{"ha":1157,"x_min":0,"x_max":0,"o":"m 668 -82 l 489 -82 l 489 -243 l 557 -243 l 500 -371 l 593 -371 l 668 -233 z m 410 956 l 103 956 l 103 0 l 410 0 l 410 214 l 576 350 l 775 0 l 1138 0 l 788 563 l 1131 956 l 750 956 l 410 547 z "},"ķ":{"ha":926,"x_min":0,"x_max":0,"o":"m 360 1008 l 83 1008 l 83 0 l 360 0 l 360 158 l 456 251 l 610 0 l 924 0 l 646 438 l 917 733 l 594 733 l 360 453 z m 553 -82 l 374 -82 l 374 -243 l 442 -243 l 385 -371 l 478 -371 l 553 -233 z "},"ĸ":{"ha":926,"x_min":0,"x_max":0,"o":"m 917 733 l 594 733 l 360 453 l 360 733 l 83 733 l 83 0 l 360 0 l 360 158 l 456 251 l 610 0 l 924 0 l 646 438 z "},"Ĺ":{"ha":926,"x_min":0,"x_max":0,"o":"m 521 1224 l 518 1229 l 250 1229 l 122 1044 l 299 1044 z m 900 0 l 900 244 l 410 244 l 410 956 l 103 956 l 103 0 z "},"ĺ":{"ha":463,"x_min":0,"x_max":0,"o":"m 369 0 l 369 1007 l 93 1007 l 93 0 z m 496 1224 l 493 1229 l 226 1229 l 97 1044 l 275 1044 z "},"Ļ":{"ha":926,"x_min":0,"x_max":0,"o":"m 553 -82 l 374 -82 l 374 -243 l 442 -243 l 385 -371 l 478 -371 l 553 -233 z m 900 0 l 900 244 l 410 244 l 410 956 l 103 956 l 103 0 z "},"ļ":{"ha":463,"x_min":0,"x_max":0,"o":"m 369 1007 l 93 1007 l 93 0 l 369 0 z m 321 -82 l 142 -82 l 142 -243 l 210 -243 l 153 -371 l 246 -371 l 321 -233 z "},"Ľ":{"ha":926,"x_min":0,"x_max":0,"o":"m 868 956 l 689 956 l 689 794 l 757 794 l 700 667 l 793 667 l 868 804 z m 900 0 l 900 244 l 410 244 l 410 956 l 103 956 l 103 0 z "},"ľ":{"ha":694,"x_min":0,"x_max":0,"o":"m 369 1007 l 93 1007 l 93 0 l 369 0 z m 679 956 l 421 956 l 421 713 l 519 713 l 421 460 l 553 460 l 679 726 z "},"Ŀ":{"ha":926,"x_min":0,"x_max":0,"o":"m 806 731 l 539 731 l 539 476 l 806 476 z m 900 0 l 900 244 l 410 244 l 410 956 l 103 956 l 103 0 z "},"ŀ":{"ha":742,"x_min":0,"x_max":0,"o":"m 369 1007 l 93 1007 l 93 0 l 369 0 z m 711 733 l 499 733 l 499 540 l 711 540 z "},"Ł":{"ha":926,"x_min":0,"x_max":0,"o":"m 410 956 l 103 956 l 103 456 l 0 392 l 0 256 l 103 318 l 103 0 l 900 0 l 900 244 l 410 244 l 410 506 l 617 633 l 617 772 l 410 643 z "},"ł":{"ha":463,"x_min":0,"x_max":0,"o":"m 369 1007 l 93 1007 l 93 463 l -21 393 l -21 257 l 93 325 l 93 0 l 369 0 l 369 488 l 503 568 l 503 707 l 369 625 z "},"Ń":{"ha":1157,"x_min":0,"x_max":0,"o":"m 1054 0 l 1054 956 l 772 956 l 772 485 l 371 956 l 103 956 l 103 0 l 385 0 l 385 464 l 786 0 z m 843 1224 l 840 1229 l 574 1229 l 444 1044 l 622 1044 z "},"ń":{"ha":926,"x_min":0,"x_max":0,"o":"m 589 750 b 328 622 485 750 385 700 l 310 733 l 83 733 l 83 0 l 360 0 l 360 431 b 475 546 360 493 406 546 b 568 442 536 546 568 503 l 568 0 l 844 0 l 844 475 b 589 750 844 649 763 750 z m 728 1001 l 725 1007 l 458 1007 l 329 822 l 507 822 z "},"Ņ":{"ha":1157,"x_min":0,"x_max":0,"o":"m 1054 956 l 772 956 l 772 485 l 371 956 l 103 956 l 103 0 l 385 0 l 385 464 l 786 0 l 1054 0 z m 668 -82 l 489 -82 l 489 -243 l 557 -243 l 500 -371 l 593 -371 l 668 -233 z "},"ņ":{"ha":926,"x_min":0,"x_max":0,"o":"m 589 750 b 328 622 485 750 385 700 l 310 733 l 83 733 l 83 0 l 360 0 l 360 431 b 475 546 360 493 406 546 b 568 442 536 546 568 503 l 568 0 l 844 0 l 844 475 b 589 750 844 649 763 750 z m 553 -82 l 374 -82 l 374 -243 l 442 -243 l 385 -371 l 478 -371 l 553 -233 z "},"Ň":{"ha":1157,"x_min":0,"x_max":0,"o":"m 1054 956 l 772 956 l 772 485 l 371 956 l 103 956 l 103 0 l 385 0 l 385 464 l 786 0 l 1054 0 z m 861 1229 l 681 1229 l 578 1122 l 474 1229 l 296 1229 l 490 1028 l 667 1028 z "},"ň":{"ha":926,"x_min":0,"x_max":0,"o":"m 589 750 b 328 622 485 750 385 700 l 310 733 l 83 733 l 83 0 l 360 0 l 360 431 b 475 546 360 493 406 546 b 568 442 536 546 568 503 l 568 0 l 844 0 l 844 475 b 589 750 844 649 763 750 z m 746 1007 l 565 1007 l 463 900 l 358 1007 l 181 1007 l 375 806 l 551 806 z "},"ŉ":{"ha":1192,"x_min":0,"x_max":0,"o":"m 292 956 l 113 956 l 113 794 l 181 794 l 124 667 l 217 667 l 292 804 z m 854 750 b 593 622 750 750 650 700 l 575 733 l 349 733 l 349 0 l 625 0 l 625 431 b 740 546 625 493 671 546 b 833 442 801 546 833 503 l 833 0 l 1110 0 l 1110 475 b 854 750 1110 649 1028 750 z "},"Ŋ":{"ha":1131,"x_min":0,"x_max":0,"o":"m 1054 956 l 772 956 l 772 485 l 371 956 l 103 956 l 103 0 l 385 0 l 385 464 l 774 14 l 774 -12 b 696 -101 774 -69 751 -101 l 628 -101 l 628 -267 b 800 -292 671 -282 756 -292 b 1054 -40 978 -292 1054 -218 z "},"ŋ":{"ha":946,"x_min":0,"x_max":0,"o":"m 599 750 b 338 622 494 750 394 700 l 319 733 l 93 733 l 93 0 l 369 0 l 369 431 b 485 546 369 493 415 546 b 578 442 546 546 578 503 l 578 -12 b 500 -101 578 -69 556 -101 l 428 -101 l 428 -267 b 600 -292 471 -282 556 -292 b 854 -40 778 -292 854 -218 l 854 475 b 599 750 854 649 772 750 z "},"Ō":{"ha":1157,"x_min":0,"x_max":0,"o":"m 578 972 b 63 478 251 972 63 804 b 578 -17 63 151 251 -17 b 1094 478 904 -17 1094 151 b 578 972 1094 804 904 972 z m 578 743 b 781 522 713 743 781 653 l 781 433 b 578 213 781 303 713 213 b 376 433 443 213 376 303 l 376 522 b 578 743 376 653 443 743 z m 799 1201 l 358 1201 l 358 1063 l 799 1063 z "},"ō":{"ha":926,"x_min":0,"x_max":0,"o":"m 463 750 b 50 367 213 750 50 624 b 463 -17 50 110 213 -17 b 876 367 713 -17 876 110 b 463 750 876 624 713 750 z m 463 563 b 600 406 560 563 600 503 l 600 326 b 463 171 600 229 560 171 b 326 326 365 171 326 229 l 326 406 b 463 563 326 503 365 563 z m 683 979 l 243 979 l 243 840 l 683 840 z "},"Ŏ":{"ha":1157,"x_min":0,"x_max":0,"o":"m 578 972 b 63 478 251 972 63 804 b 578 -17 63 151 251 -17 b 1094 478 904 -17 1094 151 b 578 972 1094 804 904 972 z m 578 743 b 781 522 713 743 781 653 l 781 433 b 578 213 781 303 713 213 b 376 433 443 213 376 303 l 376 522 b 578 743 376 653 443 743 z m 703 1229 b 578 1160 697 1200 647 1160 b 456 1229 510 1160 461 1200 l 322 1229 b 578 1029 322 1136 418 1029 b 835 1229 736 1029 835 1136 z "},"ŏ":{"ha":926,"x_min":0,"x_max":0,"o":"m 463 750 b 50 367 213 750 50 624 b 463 -17 50 110 213 -17 b 876 367 713 -17 876 110 b 463 750 876 624 713 750 z m 463 563 b 600 406 560 563 600 503 l 600 326 b 463 171 600 229 560 171 b 326 326 365 171 326 229 l 326 406 b 463 563 326 503 365 563 z m 588 1007 b 463 938 582 978 532 938 b 378 961 429 938 400 947 b 340 1007 357 975 343 993 l 207 1007 b 463 807 207 914 303 807 b 719 1007 621 807 719 914 z "},"Ő":{"ha":1157,"x_min":0,"x_max":0,"o":"m 578 972 b 63 478 251 972 63 804 b 578 -17 63 151 251 -17 b 1094 478 904 -17 1094 151 b 578 972 1094 804 904 972 z m 578 743 b 781 522 713 743 781 653 l 781 433 b 578 213 781 303 713 213 b 376 433 443 213 376 303 l 376 522 b 578 743 376 653 443 743 z m 694 1231 l 447 1231 l 342 1044 l 504 1044 l 697 1225 z m 988 1231 l 740 1231 l 635 1044 l 797 1044 l 990 1225 z "},"ő":{"ha":926,"x_min":0,"x_max":0,"o":"m 463 750 b 50 367 213 750 50 624 b 463 -17 50 110 213 -17 b 876 367 713 -17 876 110 b 463 750 876 624 713 750 z m 463 563 b 600 406 560 563 600 503 l 600 326 b 463 171 600 229 560 171 b 326 326 365 171 326 229 l 326 406 b 463 563 326 503 365 563 z m 575 1007 l 328 1007 l 222 821 l 385 821 l 578 1001 z m 868 1007 l 621 1007 l 515 821 l 678 821 l 871 1001 z "},"Ŕ":{"ha":1081,"x_min":0,"x_max":0,"o":"m 790 1224 l 788 1229 l 519 1229 l 392 1044 l 568 1044 z m 1010 663 b 688 956 1010 818 900 956 l 103 956 l 103 0 l 410 0 l 410 349 l 524 349 l 693 0 l 1038 0 l 825 400 b 1010 663 949 446 1010 551 z m 697 650 b 611 561 697 599 658 561 l 410 561 l 410 738 l 611 738 b 697 650 658 738 697 701 z "},"ŕ":{"ha":617,"x_min":0,"x_max":0,"o":"m 529 751 b 328 622 442 751 363 710 l 310 733 l 83 733 l 83 0 l 360 0 l 360 326 b 522 503 360 438 403 503 l 611 503 l 611 735 b 529 751 611 735 581 751 z m 472 1001 l 469 1007 l 203 1007 l 74 822 l 251 822 z "},"Ŗ":{"ha":1081,"x_min":0,"x_max":0,"o":"m 631 -82 l 450 -82 l 450 -243 l 519 -243 l 463 -371 l 556 -371 l 631 -233 z m 1010 663 b 688 956 1010 818 900 956 l 103 956 l 103 0 l 410 0 l 410 349 l 524 349 l 693 0 l 1038 0 l 825 400 b 1010 663 949 446 1010 551 z m 697 650 b 611 561 697 599 658 561 l 410 561 l 410 738 l 611 738 b 697 650 658 738 697 701 z "},"ŗ":{"ha":617,"x_min":0,"x_max":0,"o":"m 529 751 b 328 622 442 751 363 710 l 310 733 l 83 733 l 83 0 l 360 0 l 360 326 b 522 503 360 438 403 503 l 611 503 l 611 735 b 529 751 611 735 581 751 z m 399 -82 l 218 -82 l 218 -243 l 288 -243 l 231 -371 l 324 -371 l 399 -233 z "},"Ř":{"ha":1081,"x_min":0,"x_max":0,"o":"m 822 1229 l 642 1229 l 539 1122 l 436 1229 l 258 1229 l 451 1028 l 629 1028 z m 1010 663 b 688 956 1010 818 900 956 l 103 956 l 103 0 l 410 0 l 410 349 l 524 349 l 693 0 l 1038 0 l 825 400 b 1010 663 949 446 1010 551 z m 697 650 b 611 561 697 599 658 561 l 410 561 l 410 738 l 611 738 b 697 650 658 738 697 701 z "},"ř":{"ha":617,"x_min":0,"x_max":0,"o":"m 529 751 b 328 622 442 751 363 710 l 310 733 l 83 733 l 83 0 l 360 0 l 360 326 b 522 503 360 438 403 503 l 611 503 l 611 735 b 529 751 611 735 581 751 z m 590 1007 l 410 1007 l 307 900 l 204 1007 l 26 1007 l 219 806 l 397 806 z "},"Ś":{"ha":1003,"x_min":0,"x_max":0,"o":"m 504 972 b 75 667 278 972 75 889 b 639 267 75 294 639 404 b 504 203 639 207 560 203 b 350 324 410 203 350 221 l 60 324 b 532 -17 60 51 264 -17 b 953 317 772 -17 953 79 b 389 701 946 671 389 558 b 515 764 389 735 431 764 b 639 667 604 764 639 717 l 639 661 l 926 661 l 926 678 b 504 972 922 882 735 972 z m 767 1224 l 764 1229 l 496 1229 l 368 1044 l 546 1044 z "},"ś":{"ha":849,"x_min":0,"x_max":0,"o":"m 432 750 b 64 501 239 750 64 694 b 538 203 64 213 538 313 b 422 149 538 151 461 149 b 301 233 382 149 303 163 l 301 239 l 44 239 b 422 -17 44 56 239 -17 b 801 243 624 -17 801 42 b 328 538 801 542 328 432 b 428 585 328 585 404 585 b 490 571 447 585 471 582 b 526 514 511 561 526 543 l 783 514 b 432 750 783 688 606 750 z m 690 1001 l 688 1007 l 419 1007 l 290 822 l 468 822 z "},"Ŝ":{"ha":1003,"x_min":0,"x_max":0,"o":"m 504 972 b 75 667 278 972 75 889 b 639 267 75 294 639 404 b 504 203 639 207 560 203 b 350 324 410 203 350 221 l 60 324 b 532 -17 60 51 264 -17 b 953 317 772 -17 953 79 b 389 701 946 671 389 558 b 515 764 389 735 431 764 b 639 667 604 764 639 717 l 639 661 l 926 661 l 926 678 b 504 972 922 882 735 972 z m 590 1229 l 413 1229 l 219 1028 l 397 1028 l 500 1135 l 604 1028 l 783 1028 z "},"ŝ":{"ha":849,"x_min":0,"x_max":0,"o":"m 432 750 b 64 501 239 750 64 694 b 538 203 64 213 538 313 b 422 149 538 151 461 149 b 301 233 382 149 303 163 l 301 239 l 44 239 b 422 -17 44 56 239 -17 b 801 243 624 -17 801 42 b 328 538 801 542 328 432 b 428 585 328 585 404 585 b 490 571 447 585 471 582 b 526 514 511 561 526 543 l 783 514 b 432 750 783 688 606 750 z m 514 1007 l 336 1007 l 143 806 l 319 806 l 424 913 l 526 806 l 707 806 z "},"Ş":{"ha":1003,"x_min":0,"x_max":0,"o":"m 504 972 b 75 667 278 972 75 889 b 639 267 75 294 639 404 b 504 203 639 207 560 203 b 350 324 410 203 350 221 l 60 324 b 461 -15 60 76 229 -3 l 444 -119 l 497 -119 b 550 -164 538 -119 550 -136 b 494 -207 550 -196 528 -207 b 332 -196 422 -207 332 -196 l 332 -271 b 507 -293 374 -285 443 -293 b 671 -164 572 -293 671 -269 b 543 -40 671 -78 610 -47 l 546 -17 b 953 317 779 -12 953 85 b 389 701 946 671 389 558 b 515 764 389 735 431 764 b 639 667 604 764 639 717 l 639 661 l 926 661 l 926 678 b 504 972 922 882 735 972 z "},"ş":{"ha":849,"x_min":0,"x_max":0,"o":"m 432 750 b 64 501 239 750 64 694 b 538 203 64 213 538 313 b 422 149 538 151 461 149 b 301 233 382 149 303 163 l 301 239 l 44 239 b 383 -15 44 68 213 -6 l 368 -119 l 421 -119 b 474 -164 461 -119 474 -136 b 418 -207 474 -196 451 -207 b 256 -196 346 -207 256 -196 l 256 -271 b 431 -293 296 -285 367 -293 b 594 -164 494 -293 594 -269 b 465 -40 594 -78 533 -47 l 468 -15 b 801 243 650 -7 801 57 b 328 538 801 542 328 432 b 428 585 328 585 404 585 b 490 571 447 585 471 582 b 526 514 511 561 526 543 l 783 514 b 432 750 783 688 606 750 z "},"Ţ":{"ha":1003,"x_min":0,"x_max":0,"o":"m 965 956 l 32 956 l 32 711 l 346 711 l 346 0 l 653 0 l 653 711 l 965 711 z m 592 -82 l 411 -82 l 411 -243 l 481 -243 l 424 -371 l 517 -371 l 592 -233 z "},"ţ":{"ha":617,"x_min":0,"x_max":0,"o":"m 417 956 l 211 956 l 151 733 l 38 733 l 38 546 l 140 546 l 140 179 b 394 -17 140 29 244 -17 b 572 8 443 -17 526 -7 l 572 171 l 494 171 b 417 267 432 171 417 204 l 417 546 l 572 546 l 572 733 l 417 733 z m 460 -82 l 279 -82 l 279 -243 l 347 -243 l 290 -371 l 383 -371 l 460 -233 z "},"Ť":{"ha":1003,"x_min":0,"x_max":0,"o":"m 965 956 l 32 956 l 32 711 l 346 711 l 346 0 l 653 0 l 653 711 l 965 711 z m 783 1229 l 604 1229 l 500 1122 l 397 1229 l 219 1229 l 413 1028 l 590 1028 z "},"ť":{"ha":868,"x_min":0,"x_max":0,"o":"m 810 956 l 631 956 l 631 794 l 699 794 l 642 667 l 735 667 l 810 804 z m 417 956 l 211 956 l 151 733 l 38 733 l 38 546 l 140 546 l 140 179 b 394 -17 140 29 244 -17 b 572 8 443 -17 526 -7 l 572 171 l 494 171 b 417 267 432 171 417 204 l 417 546 l 572 546 l 572 733 l 417 733 z "},"Ŧ":{"ha":1003,"x_min":0,"x_max":0,"o":"m 878 513 l 653 513 l 653 711 l 965 711 l 965 956 l 32 956 l 32 711 l 346 711 l 346 513 l 119 513 l 119 374 l 346 374 l 346 0 l 653 0 l 653 374 l 878 374 z "},"ŧ":{"ha":617,"x_min":0,"x_max":0,"o":"m 417 956 l 211 956 l 151 733 l 38 733 l 38 546 l 140 546 l 140 431 l 43 431 l 43 290 l 140 290 l 140 179 b 394 -17 140 29 244 -17 b 572 8 443 -17 526 -7 l 572 171 l 494 171 b 417 267 432 171 417 204 l 417 290 l 543 290 l 543 431 l 417 431 l 417 546 l 572 546 l 572 733 l 417 733 z "},"Ũ":{"ha":1157,"x_min":0,"x_max":0,"o":"m 1054 956 l 747 956 l 747 389 b 578 213 747 286 690 213 b 410 389 465 213 410 286 l 410 956 l 103 956 l 103 385 b 579 -17 103 121 279 -17 b 1054 385 879 -17 1054 121 z m 775 1229 b 704 1174 764 1197 740 1174 b 464 1229 631 1174 553 1229 b 269 1031 347 1229 269 1131 l 382 1031 b 453 1086 393 1063 417 1086 b 693 1031 526 1086 604 1031 b 888 1229 810 1031 888 1129 z "},"ũ":{"ha":926,"x_min":0,"x_max":0,"o":"m 842 733 l 565 733 l 565 303 b 450 188 565 240 519 188 b 357 292 389 188 357 231 l 357 733 l 81 733 l 81 258 b 336 -17 81 85 163 -17 b 597 111 440 -17 540 32 l 615 0 l 842 0 z m 660 1007 b 589 951 649 975 625 951 b 349 1007 515 951 438 1007 b 154 808 232 1007 154 908 l 267 808 b 338 864 278 840 301 864 b 578 808 411 864 489 808 b 772 1007 694 808 772 907 z "},"Ū":{"ha":1157,"x_min":0,"x_max":0,"o":"m 1054 956 l 747 956 l 747 389 b 578 213 747 286 690 213 b 410 389 465 213 410 286 l 410 956 l 103 956 l 103 385 b 579 -17 103 121 279 -17 b 1054 385 879 -17 1054 121 z m 799 1201 l 358 1201 l 358 1063 l 799 1063 z "},"ū":{"ha":926,"x_min":0,"x_max":0,"o":"m 842 733 l 565 733 l 565 303 b 450 188 565 240 519 188 b 357 292 389 188 357 231 l 357 733 l 81 733 l 81 258 b 336 -17 81 85 163 -17 b 597 111 440 -17 540 32 l 615 0 l 842 0 z m 683 979 l 243 979 l 243 840 l 683 840 z "},"Ŭ":{"ha":1157,"x_min":0,"x_max":0,"o":"m 1054 956 l 747 956 l 747 389 b 578 213 747 286 690 213 b 410 389 465 213 410 286 l 410 956 l 103 956 l 103 385 b 579 -17 103 121 279 -17 b 1054 385 879 -17 1054 121 z m 703 1229 b 578 1160 697 1200 647 1160 b 456 1229 510 1160 461 1200 l 322 1229 b 578 1029 322 1136 418 1029 b 835 1229 736 1029 835 1136 z "},"ŭ":{"ha":926,"x_min":0,"x_max":0,"o":"m 842 733 l 565 733 l 565 303 b 450 188 565 240 519 188 b 357 292 389 188 357 231 l 357 733 l 81 733 l 81 258 b 336 -17 81 85 163 -17 b 597 111 440 -17 540 32 l 615 0 l 842 0 z m 588 1007 b 463 938 582 978 532 938 b 378 961 429 938 400 947 b 340 1007 357 975 343 993 l 207 1007 b 463 807 207 914 303 807 b 719 1007 621 807 719 914 z "},"Ů":{"ha":1157,"x_min":0,"x_max":0,"o":"m 1054 956 l 747 956 l 747 389 b 578 213 747 286 690 213 b 410 389 465 213 410 286 l 410 956 l 103 956 l 103 385 b 579 -17 103 121 279 -17 b 1054 385 879 -17 1054 121 z m 579 1325 b 428 1174 494 1325 428 1257 b 579 1024 428 1090 496 1024 b 729 1174 663 1024 729 1092 b 579 1325 729 1258 661 1325 z m 579 1229 b 635 1175 610 1229 635 1207 b 579 1118 635 1142 611 1118 b 522 1172 547 1118 522 1140 b 579 1229 522 1206 546 1229 z "},"ů":{"ha":926,"x_min":0,"x_max":0,"o":"m 842 733 l 565 733 l 565 303 b 450 188 565 240 519 188 b 357 292 389 188 357 231 l 357 733 l 81 733 l 81 258 b 336 -17 81 85 163 -17 b 597 111 440 -17 540 32 l 615 0 l 842 0 z m 463 1103 b 313 951 379 1103 313 1035 b 463 801 313 868 381 801 b 614 951 547 801 614 869 b 463 1103 614 1036 546 1103 z m 463 1007 b 519 953 494 1007 519 985 b 463 896 519 919 496 896 b 407 950 432 896 407 918 b 463 1007 407 983 431 1007 z "},"Ű":{"ha":1157,"x_min":0,"x_max":0,"o":"m 1054 956 l 747 956 l 747 389 b 578 213 747 286 690 213 b 410 389 465 213 410 286 l 410 956 l 103 956 l 103 385 b 579 -17 103 121 279 -17 b 1054 385 879 -17 1054 121 z m 694 1231 l 447 1231 l 342 1044 l 504 1044 l 697 1225 z m 988 1231 l 740 1231 l 635 1044 l 797 1044 l 990 1225 z "},"ű":{"ha":926,"x_min":0,"x_max":0,"o":"m 842 733 l 565 733 l 565 303 b 450 188 565 240 519 188 b 357 292 389 188 357 231 l 357 733 l 81 733 l 81 258 b 336 -17 81 85 163 -17 b 597 111 440 -17 540 32 l 615 0 l 842 0 z m 568 1007 l 321 1007 l 215 821 l 378 821 l 571 1001 z m 861 1007 l 614 1007 l 508 821 l 671 821 l 864 1001 z "},"Ų":{"ha":1157,"x_min":0,"x_max":0,"o":"m 1054 956 l 747 956 l 747 389 b 578 213 747 286 690 213 b 410 389 465 213 410 286 l 410 956 l 103 956 l 103 385 b 579 -17 103 121 279 -17 b 633 -15 597 -17 615 -17 b 589 -135 608 -47 589 -85 b 764 -293 589 -249 675 -293 b 897 -272 810 -293 854 -286 l 897 -167 l 839 -167 b 756 -96 776 -167 756 -132 b 782 10 756 -56 772 -10 b 1054 385 956 61 1054 188 z "},"ų":{"ha":926,"x_min":0,"x_max":0,"o":"m 842 733 l 565 733 l 565 303 b 450 188 565 240 519 188 b 357 292 389 188 357 231 l 357 733 l 81 733 l 81 258 b 336 -17 81 85 163 -17 b 597 111 440 -17 540 32 l 613 17 l 594 17 b 525 -135 563 -22 525 -67 b 700 -293 525 -249 611 -293 b 833 -272 746 -293 790 -286 l 833 -167 l 775 -167 b 692 -96 713 -167 692 -132 b 714 0 692 -60 704 -22 l 842 0 z "},"Ŵ":{"ha":1389,"x_min":0,"x_max":0,"o":"m 1382 956 l 1076 956 l 974 414 l 968 414 l 853 956 l 550 956 l 442 414 l 436 414 l 326 956 l 7 956 l 231 0 l 568 0 l 692 582 l 697 582 l 821 0 l 1158 0 z m 783 1229 l 606 1229 l 413 1028 l 590 1028 l 693 1135 l 796 1028 l 976 1028 z "},"ŵ":{"ha":1311,"x_min":0,"x_max":0,"o":"m 1311 733 l 1042 733 l 929 300 l 919 300 l 808 733 l 533 733 l 418 300 l 408 300 l 297 733 l 0 733 l 268 0 l 538 0 l 653 408 l 658 408 l 772 0 l 1042 0 z m 744 1007 l 567 1007 l 374 806 l 551 806 l 654 913 l 757 806 l 938 806 z "},"Ŷ":{"ha":1081,"x_min":0,"x_max":0,"o":"m 1069 956 l 735 956 l 551 638 l 546 638 l 363 956 l 10 956 l 389 371 l 389 0 l 696 0 l 696 371 z m 629 1229 l 451 1229 l 258 1028 l 436 1028 l 539 1135 l 642 1028 l 822 1028 z "},"ŷ":{"ha":849,"x_min":0,"x_max":0,"o":"m 849 733 l 576 733 l 447 246 l 438 246 l 297 733 l 0 733 l 292 0 b 168 -101 285 -36 265 -101 l 57 -101 l 57 -267 b 217 -292 92 -279 150 -292 b 588 22 431 -292 521 -160 z m 514 1007 l 336 1007 l 143 806 l 319 806 l 424 913 l 526 806 l 707 806 z "},"Ź":{"ha":1003,"x_min":0,"x_max":0,"o":"m 949 857 l 949 956 l 67 956 l 67 726 l 476 726 l 33 99 l 33 0 l 960 0 l 960 229 l 506 229 z m 767 1224 l 764 1229 l 496 1229 l 368 1044 l 546 1044 z "},"ź":{"ha":772,"x_min":0,"x_max":0,"o":"m 731 647 l 731 733 l 44 733 l 44 546 l 336 546 l 28 90 l 28 0 l 743 0 l 743 188 l 419 188 z m 651 1001 l 649 1007 l 381 1007 l 253 822 l 431 822 z "},"Ż":{"ha":1003,"x_min":0,"x_max":0,"o":"m 949 956 l 67 956 l 67 726 l 476 726 l 33 99 l 33 0 l 960 0 l 960 229 l 506 229 l 949 857 z m 607 1229 l 396 1229 l 396 1036 l 607 1036 z "},"ż":{"ha":772,"x_min":0,"x_max":0,"o":"m 731 733 l 44 733 l 44 546 l 336 546 l 28 90 l 28 0 l 743 0 l 743 188 l 419 188 l 731 647 z m 492 1007 l 281 1007 l 281 814 l 492 814 z "},"ſ":{"ha":542,"x_min":0,"x_max":0,"o":"m 382 1024 b 114 764 224 1024 114 964 l 114 733 l 11 733 l 11 546 l 114 546 l 114 0 l 390 0 l 390 763 b 468 836 390 814 407 836 l 532 836 l 532 999 b 382 1024 494 1013 422 1024 z "},"Ǻ":{"ha":1081,"x_min":0,"x_max":0,"o":"m 719 956 l 682 956 b 693 1011 689 972 693 990 b 542 1149 693 1103 624 1149 b 390 1011 458 1149 390 1101 b 400 956 390 990 393 972 l 363 956 l 14 0 l 328 0 l 368 135 l 703 135 l 743 0 l 1068 0 z m 539 689 l 639 349 l 432 349 l 533 689 z m 542 1067 b 597 1013 574 1067 597 1044 b 542 956 597 979 575 956 b 486 1010 510 956 486 978 b 542 1067 486 1043 508 1067 z m 806 1329 l 553 1329 l 446 1183 l 622 1183 l 808 1324 z "},"ǻ":{"ha":926,"x_min":0,"x_max":0,"o":"m 463 1053 b 313 915 379 1053 313 1006 b 463 779 313 825 381 779 b 614 915 547 779 614 826 b 463 1053 614 1007 546 1053 z m 463 971 b 519 917 494 971 519 949 b 463 860 519 883 496 860 b 407 914 432 860 407 882 b 463 971 407 947 431 971 z m 446 750 b 63 524 194 750 63 658 b 64 504 63 517 63 511 l 336 504 l 336 510 b 442 574 336 558 393 574 b 549 486 501 574 549 546 l 549 450 b 42 189 228 450 42 408 b 300 -17 42 36 147 -17 b 571 75 428 -17 510 26 b 775 -17 596 19 664 -17 b 919 11 868 -17 919 11 l 919 171 l 869 171 b 825 225 839 171 825 194 l 825 511 b 446 750 825 692 647 750 z m 549 257 b 413 156 549 197 483 156 b 318 225 365 156 318 168 b 549 319 318 279 385 319 z m 726 1232 l 475 1232 l 368 1088 l 544 1088 l 729 1226 z "},"Ǽ":{"ha":1389,"x_min":0,"x_max":0,"o":"m 1053 1224 l 1050 1229 l 782 1229 l 654 1044 l 831 1044 z m 696 0 l 1336 0 l 1336 229 l 935 229 l 901 375 l 1249 375 l 1249 594 l 850 594 l 819 726 l 1326 726 l 1326 956 l 383 956 l -21 0 l 293 0 l 340 135 l 665 135 z m 538 689 l 543 689 l 618 349 l 417 349 z "},"ǽ":{"ha":1389,"x_min":0,"x_max":0,"o":"m 964 750 b 719 683 869 750 786 728 b 446 750 650 732 550 750 b 63 524 194 750 63 658 b 64 504 63 517 63 511 l 336 504 l 336 510 b 447 574 336 558 396 574 b 549 486 504 574 549 546 l 549 450 b 42 203 226 450 42 410 b 356 -17 42 33 163 -17 b 656 85 486 -17 585 32 b 981 -17 729 15 842 -17 b 1350 267 1225 -17 1350 92 l 1082 267 b 961 160 1082 207 1050 160 b 828 319 865 160 828 218 l 1350 319 l 1350 367 b 964 750 1350 631 1211 750 z m 549 257 b 413 156 549 197 483 156 b 318 225 365 156 318 168 b 549 319 318 279 385 319 z m 956 574 b 1071 450 1029 574 1071 526 l 829 450 b 956 574 838 526 875 574 z m 976 1001 l 974 1007 l 706 1007 l 578 822 l 754 822 z "},"Ǿ":{"ha":1157,"x_min":0,"x_max":0,"o":"m 1082 1007 l 932 1007 l 858 915 b 578 972 781 953 688 972 b 63 478 251 972 63 804 b 200 106 63 313 111 188 l 75 -50 l 225 -50 l 297 39 b 578 -17 374 1 468 -17 b 1094 478 904 -17 1094 151 b 954 850 1094 643 1046 768 z m 765 617 b 781 522 775 589 781 557 l 781 433 b 578 213 781 303 713 213 b 463 243 531 213 493 224 z m 578 743 b 693 713 624 743 663 732 l 390 339 b 376 433 381 367 376 399 l 376 522 b 578 743 376 653 443 743 z m 843 1224 l 840 1229 l 574 1229 l 444 1044 l 622 1044 z "},"ǿ":{"ha":926,"x_min":0,"x_max":0,"o":"m 864 776 l 736 776 l 681 707 b 463 750 619 736 546 750 b 50 367 213 750 50 624 b 171 71 50 233 94 135 l 64 -62 l 192 -62 l 257 19 b 463 -17 315 -4 385 -17 b 876 367 713 -17 876 110 b 765 653 876 493 836 589 z m 597 444 b 600 406 599 432 600 419 l 600 326 b 463 171 600 229 560 171 b 390 186 433 171 410 176 z m 463 563 b 546 540 497 563 525 554 l 331 271 b 326 326 328 288 326 306 l 326 406 b 463 563 326 503 365 563 z m 729 1001 l 726 1007 l 458 1007 l 331 822 l 507 822 z "},"ˇ":{"ha":463,"x_min":0,"x_max":0,"o":"m 515 1007 l 335 1007 l 232 900 l 129 1007 l -49 1007 l 144 806 l 322 806 z "},"ˉ":{"ha":694,"x_min":0,"x_max":0,"o":"m 694 1169 l 0 1169 l 0 1083 l 694 1083 z "},"˘":{"ha":463,"x_min":0,"x_max":0,"o":"m 356 1007 b 231 938 350 978 300 938 b 146 961 197 938 168 947 b 108 1007 125 975 111 993 l -25 1007 b 231 807 -25 914 71 807 b 488 1007 389 807 488 914 z "},"˙":{"ha":463,"x_min":0,"x_max":0,"o":"m 338 1007 l 126 1007 l 126 814 l 338 814 z "},"˚":{"ha":463,"x_min":0,"x_max":0,"o":"m 232 1103 b 81 951 149 1103 81 1035 b 232 801 81 868 150 801 b 383 951 315 801 383 869 b 232 1103 383 1036 314 1103 z m 232 1007 b 288 953 264 1007 288 985 b 232 896 288 919 265 896 b 176 950 200 896 176 918 b 232 1007 176 983 199 1007 z "},"˛":{"ha":463,"x_min":0,"x_max":0,"o":"m 294 17 l 169 17 b 100 -135 138 -22 100 -67 b 275 -293 100 -249 186 -293 b 408 -272 321 -293 365 -286 l 408 -167 l 350 -167 b 267 -96 288 -167 267 -132 b 294 11 267 -54 283 -8 z "},"˝":{"ha":463,"x_min":0,"x_max":0,"o":"m 335 1007 l 88 1007 l -18 821 l 144 821 l 338 1001 z m 628 1007 l 381 1007 l 275 821 l 438 821 l 631 1001 z "},"π":{"ha":982,"x_min":0,"x_max":0,"o":"m 943 733 l 304 733 b 31 683 154 733 65 715 l 51 546 b 199 560 89 556 138 560 b 113 0 199 410 157 143 l 357 0 b 444 560 404 111 439 397 l 572 560 l 572 213 b 599 0 572 114 579 26 l 842 0 b 824 229 832 46 824 125 l 824 560 l 925 560 z "},"Ẁ":{"ha":1389,"x_min":0,"x_max":0,"o":"m 1158 0 l 1382 956 l 1076 956 l 974 414 l 968 414 l 853 956 l 550 956 l 442 414 l 436 414 l 326 956 l 7 956 l 231 0 l 568 0 l 692 582 l 697 582 l 821 0 z m 828 1044 l 700 1229 l 432 1229 l 429 1224 l 651 1044 z "},"ẁ":{"ha":1311,"x_min":0,"x_max":0,"o":"m 1042 0 l 1311 733 l 1042 733 l 929 300 l 919 300 l 808 733 l 533 733 l 418 300 l 408 300 l 297 733 l 0 733 l 268 0 l 538 0 l 653 408 l 658 408 l 772 0 z m 789 822 l 661 1007 l 393 1007 l 390 1001 l 613 822 z "},"Ẃ":{"ha":1389,"x_min":0,"x_max":0,"o":"m 1158 0 l 1382 956 l 1076 956 l 974 414 l 968 414 l 853 956 l 550 956 l 442 414 l 436 414 l 326 956 l 7 956 l 231 0 l 568 0 l 692 582 l 697 582 l 821 0 z m 960 1224 l 957 1229 l 689 1229 l 561 1044 l 738 1044 z "},"ẃ":{"ha":1311,"x_min":0,"x_max":0,"o":"m 1042 0 l 1311 733 l 1042 733 l 929 300 l 919 300 l 808 733 l 533 733 l 418 300 l 408 300 l 297 733 l 0 733 l 268 0 l 538 0 l 653 408 l 658 408 l 772 0 z m 921 1001 l 918 1007 l 650 1007 l 522 822 l 699 822 z "},"Ẅ":{"ha":1389,"x_min":0,"x_max":0,"o":"m 1382 956 l 1076 956 l 974 414 l 968 414 l 853 956 l 550 956 l 442 414 l 436 414 l 326 956 l 7 956 l 231 0 l 568 0 l 692 582 l 697 582 l 821 0 l 1158 0 z m 953 1229 l 742 1229 l 742 1036 l 953 1036 z m 647 1229 l 436 1229 l 436 1036 l 647 1036 z "},"ẅ":{"ha":1311,"x_min":0,"x_max":0,"o":"m 1311 733 l 1042 733 l 929 300 l 919 300 l 808 733 l 533 733 l 418 300 l 408 300 l 297 733 l 0 733 l 268 0 l 538 0 l 653 408 l 658 408 l 772 0 l 1042 0 z m 914 1007 l 703 1007 l 703 814 l 914 814 z m 608 1007 l 397 1007 l 397 814 l 608 814 z "},"Ỳ":{"ha":1081,"x_min":0,"x_max":0,"o":"m 696 371 l 1069 956 l 735 956 l 551 638 l 546 638 l 363 956 l 10 956 l 389 371 l 389 0 l 696 0 z m 674 1044 l 546 1229 l 278 1229 l 275 1224 l 497 1044 z "},"ỳ":{"ha":849,"x_min":0,"x_max":0,"o":"m 849 733 l 576 733 l 447 246 l 438 246 l 297 733 l 0 733 l 292 0 b 168 -101 285 -36 265 -101 l 57 -101 l 57 -267 b 217 -292 92 -279 150 -292 b 588 22 431 -292 521 -160 z m 558 822 l 431 1007 l 163 1007 l 160 1001 l 382 822 z "},"―":{"ha":1042,"x_min":0,"x_max":0,"o":"m 1043 464 l 0 464 l 0 272 l 1043 272 z "},"‗":{"ha":694,"x_min":0,"x_max":0,"o":"m 694 -221 l 0 -221 l 0 -307 l 694 -307 z m 696 -89 l 1 -89 l 1 -175 l 696 -175 z "},"‛":{"ha":386,"x_min":0,"x_max":0,"o":"m 319 956 l 61 956 l 61 726 l 188 460 l 319 460 l 221 713 l 319 713 z "},"′":{"ha":422,"x_min":0,"x_max":0,"o":"m 351 1007 l 104 1007 l 82 710 l 244 710 l 354 1001 z "},"″":{"ha":728,"x_min":0,"x_max":0,"o":"m 644 1007 l 397 1007 l 375 710 l 538 710 l 647 1001 z m 351 1007 l 104 1007 l 82 710 l 244 710 l 354 1001 z "},"‼":{"ha":839,"x_min":0,"x_max":0,"o":"m 779 956 l 447 956 l 524 342 l 700 342 z m 368 257 l 93 257 l 93 0 l 368 0 z m 750 257 l 475 257 l 475 0 l 750 0 z m 397 956 l 65 956 l 142 342 l 318 342 z "},"‾":{"ha":694,"x_min":0,"x_max":0,"o":"m 696 1169 l 1 1169 l 1 1083 l 696 1083 z "},"⁄":{"ha":232,"x_min":0,"x_max":0,"o":"m 456 972 l 322 972 l -247 -17 l -115 -17 z "},"ⁿ":{"ha":606,"x_min":0,"x_max":0,"o":"m 390 1022 b 219 946 322 1022 257 992 l 207 1013 l 60 1013 l 60 572 l 240 572 l 240 831 b 315 900 240 868 271 900 b 376 838 356 900 376 874 l 376 572 l 557 572 l 557 857 b 390 1022 557 961 504 1022 z "},"₣":{"ha":1157,"x_min":0,"x_max":0,"o":"m 1150 617 b 1068 633 1150 617 1119 633 b 867 504 981 633 901 592 l 849 615 l 622 615 l 622 563 l 410 563 l 410 726 l 850 726 l 850 956 l 103 956 l 103 0 l 410 0 l 410 343 l 622 343 l 622 0 l 899 0 l 899 208 b 1061 385 899 319 942 385 l 1150 385 z "},"₤":{"ha":926,"x_min":0,"x_max":0,"o":"m 529 972 b 174 685 282 972 174 844 l 174 590 l 43 590 l 43 475 l 174 475 l 174 414 l 43 414 l 43 299 l 174 299 l 174 204 l 85 204 l 85 0 l 811 0 l 811 204 l 410 204 l 422 299 l 610 299 l 610 414 l 439 414 l 447 474 l 610 474 l 610 590 l 447 590 l 447 686 b 529 767 447 731 485 767 b 610 686 574 767 610 731 l 610 653 l 886 653 l 886 686 b 529 972 886 844 764 972 z "},"₧":{"ha":2392,"x_min":0,"x_max":0,"o":"m 517 729 b 613 636 582 729 613 693 l 613 625 b 517 532 613 568 581 532 l 389 532 l 389 729 z m 1365 956 l 1160 956 l 1100 733 l 986 733 l 986 546 l 1089 546 l 1089 179 b 1343 -17 1089 29 1193 -17 b 1521 8 1392 -17 1475 -7 l 1521 171 l 1443 171 b 1365 267 1381 171 1365 204 l 1365 546 l 1521 546 l 1521 733 l 1365 733 z m 83 956 l 83 0 l 389 0 l 389 308 l 618 308 b 925 624 799 308 925 443 l 925 642 b 618 956 925 822 799 956 z m 1997 750 b 1629 501 1804 750 1629 694 b 2103 203 1629 213 2103 313 b 1988 149 2103 151 2026 149 b 1867 233 1947 149 1868 163 l 1867 239 l 1610 239 b 1988 -17 1610 56 1804 -17 b 2367 243 2189 -17 2367 42 b 1893 538 2367 542 1893 432 b 1993 585 1893 585 1969 585 b 2056 571 2013 585 2036 582 b 2092 514 2076 561 2092 543 l 2349 514 b 1997 750 2349 688 2171 750 z "},"℅":{"ha":1389,"x_min":0,"x_max":0,"o":"m 1050 365 b 1142 261 1114 365 1142 326 l 1142 210 b 1050 107 1142 146 1114 107 b 960 210 986 107 960 146 l 960 261 b 1050 365 960 326 986 365 z m 1046 972 l 913 972 l 343 -17 l 475 -17 z m 1050 489 b 778 236 885 489 778 406 b 1050 -17 778 67 885 -17 b 1324 236 1215 -17 1324 67 b 1050 489 1324 406 1215 489 z m 336 971 b 64 718 171 971 64 888 b 336 465 64 549 171 465 b 603 674 483 465 603 526 l 433 674 b 340 589 433 614 400 589 b 246 692 272 589 246 628 l 246 744 b 336 847 246 808 272 847 b 403 828 365 847 388 842 b 426 765 418 814 426 794 l 603 765 b 336 971 603 913 483 971 z "},"ℓ":{"ha":814,"x_min":0,"x_max":0,"o":"m 458 1024 b 157 646 278 1024 157 907 l 157 353 b 74 296 117 324 115 324 l 74 136 b 163 194 99 151 136 178 b 454 -17 163 82 268 -17 b 719 75 544 -17 639 8 l 719 285 l 714 285 b 514 167 665 222 594 167 b 390 275 439 167 393 208 l 389 311 b 708 767 585 468 708 606 b 458 1024 708 904 632 1024 z m 471 874 b 539 781 518 874 539 836 b 389 506 539 700 486 600 l 389 689 b 471 874 389 831 432 874 z "},"№":{"ha":1868,"x_min":0,"x_max":0,"o":"m 1463 972 b 1135 696 1264 972 1135 881 b 1463 419 1135 511 1264 419 b 1790 696 1660 419 1790 511 b 1463 972 1790 881 1660 972 z m 1463 824 b 1571 699 1539 824 1571 776 l 1571 692 b 1463 568 1571 615 1539 568 b 1354 692 1385 568 1354 615 l 1354 699 b 1463 824 1354 776 1385 824 z m 1054 956 l 772 956 l 772 485 l 371 956 l 103 956 l 103 0 l 385 0 l 385 464 l 786 0 l 1054 0 z m 1757 364 l 1168 364 l 1168 200 l 1757 200 z "},"Ω":{"ha":1186,"x_min":0,"x_max":0,"o":"m 593 972 b 79 536 274 972 79 804 b 225 203 79 396 140 283 l 58 231 l 43 231 l 43 0 l 510 0 l 510 204 b 393 411 431 236 393 311 l 393 522 b 593 743 393 653 460 743 b 797 522 728 743 797 653 l 797 411 b 678 204 797 311 757 235 l 678 0 l 1144 0 l 1144 231 l 1128 231 l 961 203 b 1110 536 1047 283 1110 396 b 593 972 1110 804 914 972 z "},"℮":{"ha":833,"x_min":0,"x_max":0,"o":"m 419 750 b 61 367 197 750 61 589 b 419 -17 61 144 197 -17 b 733 164 565 -17 675 53 l 686 194 b 419 42 638 100 543 42 b 213 115 333 42 264 68 l 213 346 l 779 346 l 779 353 b 419 750 779 583 642 750 z m 419 692 b 628 615 506 692 575 664 l 628 404 l 213 404 l 213 617 b 419 692 264 664 333 692 z "},"⅛":{"ha":1389,"x_min":0,"x_max":0,"o":"m 1082 232 b 1168 164 1126 232 1168 208 b 1082 96 1168 118 1131 96 b 997 164 1032 96 997 118 b 1082 232 997 208 1036 232 z m 1082 575 b 839 407 946 575 839 515 b 915 288 839 342 872 315 l 915 281 b 817 150 856 250 817 218 b 1082 -17 817 42 919 -17 b 1349 150 1243 -17 1349 42 b 1249 281 1349 218 1310 250 l 1249 288 b 1325 407 1293 315 1325 342 b 1082 575 1325 515 1217 575 z m 1082 463 b 1168 400 1131 463 1168 444 b 1082 338 1168 354 1126 338 b 997 400 1036 338 997 354 b 1082 463 997 444 1032 463 z m 1065 972 l 932 972 l 363 -17 l 494 -17 z m 383 963 l 322 963 b 53 872 251 919 138 878 l 53 776 l 201 776 l 201 517 l 53 517 l 53 389 l 526 389 l 526 517 l 383 517 z "},"⅜":{"ha":1389,"x_min":0,"x_max":0,"o":"m 1093 232 b 1179 164 1138 232 1179 208 b 1093 96 1179 118 1142 96 b 1008 164 1043 96 1008 118 b 1093 232 1008 208 1047 232 z m 1093 575 b 850 407 957 575 850 515 b 926 288 850 342 883 315 l 926 281 b 828 150 867 250 828 218 b 1093 -17 828 42 931 -17 b 1360 150 1254 -17 1360 42 b 1260 281 1360 218 1321 250 l 1260 288 b 1336 407 1304 315 1336 342 b 1093 575 1336 515 1228 575 z m 1093 463 b 1179 400 1142 463 1179 444 b 1093 338 1179 354 1138 338 b 1008 400 1047 338 1008 354 b 1093 463 1008 444 1043 463 z m 1065 972 l 932 972 l 363 -17 l 494 -17 z m 315 974 b 65 818 156 974 65 903 l 65 797 l 217 797 b 300 860 217 831 246 860 b 381 794 351 860 381 828 b 317 735 381 753 351 735 l 264 735 l 264 632 l 331 632 b 394 572 367 632 394 613 b 300 496 394 528 369 496 b 206 564 226 496 206 526 l 44 564 l 44 546 b 311 382 44 456 129 382 b 576 547 492 382 576 456 b 467 688 576 617 536 667 l 467 693 b 558 818 521 711 558 761 b 315 974 558 903 471 974 z "},"⅝":{"ha":1389,"x_min":0,"x_max":0,"o":"m 1092 232 b 1178 164 1136 232 1178 208 b 1092 96 1178 118 1140 96 b 1007 164 1042 96 1007 118 b 1092 232 1007 208 1046 232 z m 1092 575 b 849 407 956 575 849 515 b 925 288 849 342 882 315 l 925 281 b 826 150 865 250 826 218 b 1092 -17 826 42 929 -17 b 1358 150 1253 -17 1358 42 b 1258 281 1358 218 1319 250 l 1258 288 b 1335 407 1303 315 1335 342 b 1092 575 1335 515 1226 575 z m 1092 463 b 1178 400 1140 463 1178 444 b 1092 338 1178 354 1136 338 b 1007 400 1046 338 1007 354 b 1092 463 1007 444 1042 463 z m 1067 972 l 933 972 l 364 -17 l 496 -17 z m 540 956 l 106 956 l 79 635 l 224 617 b 311 658 233 628 250 658 b 407 572 374 658 407 621 b 310 488 407 524 374 488 b 213 568 246 488 213 524 l 53 568 b 329 372 53 451 147 372 b 586 569 488 372 586 461 b 368 764 586 692 501 764 b 235 726 283 764 235 726 l 242 814 l 540 814 z "},"⅞":{"ha":1389,"x_min":0,"x_max":0,"o":"m 1038 232 b 1124 164 1082 232 1124 208 b 1038 96 1124 118 1086 96 b 953 164 988 96 953 118 b 1038 232 953 208 992 232 z m 1038 575 b 794 407 901 575 794 515 b 871 288 794 342 828 315 l 871 281 b 772 150 811 250 772 218 b 1038 -17 772 42 875 -17 b 1304 150 1199 -17 1304 42 b 1204 281 1304 218 1265 250 l 1204 288 b 1281 407 1249 315 1281 342 b 1038 575 1281 515 1172 575 z m 1038 463 b 1124 400 1086 463 1124 444 b 1038 338 1124 354 1082 338 b 953 400 992 338 953 354 b 1038 463 953 444 988 463 z m 985 972 l 851 972 l 282 -17 l 414 -17 z m 607 956 l 79 956 l 79 813 l 379 813 b 182 383 265 692 182 542 l 385 383 l 385 432 b 607 879 385 601 492 749 z "},"←":{"ha":1389,"x_min":0,"x_max":0,"o":"m 1332 263 l 1332 439 l 371 439 l 431 632 l 332 632 l 58 365 l 58 336 l 332 69 l 431 69 l 371 263 z "},"↑":{"ha":694,"x_min":0,"x_max":0,"o":"m 258 -286 l 433 -286 l 433 675 l 628 615 l 628 714 l 361 988 l 332 988 l 64 714 l 64 615 l 258 675 z "},"→":{"ha":1389,"x_min":0,"x_max":0,"o":"m 58 263 l 1019 263 l 960 69 l 1058 69 l 1332 336 l 1332 365 l 1058 632 l 960 632 l 1019 439 l 58 439 z "},"↓":{"ha":694,"x_min":0,"x_max":0,"o":"m 628 -12 l 628 86 l 433 26 l 433 988 l 258 988 l 258 26 l 64 86 l 64 -12 l 332 -286 l 361 -286 z "},"↔":{"ha":1389,"x_min":0,"x_max":0,"o":"m 1058 632 l 960 632 l 1019 439 l 371 439 l 431 632 l 332 632 l 58 365 l 58 336 l 332 69 l 431 69 l 371 263 l 1019 263 l 960 69 l 1058 69 l 1332 336 l 1332 365 z "},"↕":{"ha":694,"x_min":0,"x_max":0,"o":"m 628 -12 l 628 86 l 433 26 l 433 675 l 628 615 l 628 714 l 361 988 l 332 988 l 64 714 l 64 615 l 258 675 l 258 26 l 64 86 l 64 -12 l 332 -286 l 361 -286 z "},"↨":{"ha":694,"x_min":0,"x_max":0,"o":"m 628 103 l 628 201 l 433 142 l 433 675 l 628 615 l 628 714 l 361 988 l 332 988 l 64 714 l 64 615 l 258 675 l 258 142 l 64 201 l 64 103 l 332 -171 l 361 -171 z m 628 -219 l 64 -219 l 64 -306 l 628 -306 z "},"∂":{"ha":694,"x_min":0,"x_max":0,"o":"m 296 972 b 96 926 207 972 142 950 l 96 749 b 260 792 124 764 181 792 b 465 535 392 792 465 665 b 464 506 465 528 464 506 b 278 611 443 539 381 611 b 13 286 121 611 13 474 b 314 -18 13 139 110 -18 b 668 490 542 -18 668 194 b 296 972 668 789 504 972 z m 335 453 b 446 350 397 453 439 386 b 313 149 436 260 386 149 b 219 282 258 149 219 207 b 335 453 219 375 265 453 z "},"∆":{"ha":1081,"x_min":0,"x_max":0,"o":"m 36 0 l 1050 0 l 1050 97 l 724 956 l 361 956 l 36 97 z m 535 728 l 540 728 l 694 213 l 372 213 z "},"∏":{"ha":1143,"x_min":0,"x_max":0,"o":"m 1115 1007 l 29 1007 l 29 804 l 192 804 l 192 -192 l 432 -192 l 432 804 l 713 804 l 713 -192 l 953 -192 l 953 804 l 1115 804 z "},"∑":{"ha":990,"x_min":0,"x_max":0,"o":"m 914 1008 l 58 1008 l 58 854 l 372 407 l 40 -74 l 40 -192 l 950 -192 l 950 14 l 371 14 l 371 21 l 664 442 l 418 797 l 418 803 l 914 803 z "},"−":{"ha":917,"x_min":0,"x_max":0,"o":"m 825 458 l 92 458 l 92 275 l 825 275 z "},"∕":{"ha":232,"x_min":0,"x_max":0,"o":"m 456 972 l 322 972 l -247 -17 l -115 -17 z "},"∙":{"ha":463,"x_min":0,"x_max":0,"o":"m 364 581 l 99 581 l 99 326 l 364 326 z "},"√":{"ha":763,"x_min":0,"x_max":0,"o":"m 832 1169 l 685 1169 l 476 163 b 454 31 465 113 458 65 l 446 31 b 410 154 436 67 425 113 l 249 589 l -46 468 l -7 350 l 108 396 l 350 -203 l 539 -203 z "},"∞":{"ha":810,"x_min":0,"x_max":0,"o":"m 604 742 b 413 617 504 742 450 661 b 213 742 358 699 297 742 b 13 517 99 742 13 651 b 201 297 13 382 103 297 b 403 428 289 297 346 350 b 604 297 476 313 551 297 b 797 526 703 297 797 381 b 604 742 797 661 708 742 z m 215 628 b 342 521 276 628 304 583 l 346 513 b 218 413 315 464 272 413 b 132 518 169 413 132 461 b 215 628 132 590 171 628 z m 593 628 b 678 517 644 628 678 581 b 599 413 678 472 650 413 b 465 521 557 413 525 429 l 469 526 b 593 628 507 579 542 628 z "},"∟":{"ha":1360,"x_min":0,"x_max":0,"o":"m 415 868 l 246 868 l 246 0 l 1114 0 l 1114 156 l 415 156 z "},"∩":{"ha":999,"x_min":0,"x_max":0,"o":"m 96 1 l 290 1 l 290 622 b 497 800 290 696 342 800 b 704 622 682 800 704 692 l 704 0 l 900 0 l 900 617 b 497 956 900 810 804 956 b 96 617 192 956 96 810 z "},"∫":{"ha":376,"x_min":0,"x_max":0,"o":"m 378 1254 l 271 1254 b 75 1099 176 1254 75 1206 b 111 15 75 881 111 15 b -1 -42 111 -39 36 -42 l -1 -136 l 106 -136 b 301 19 200 -136 301 -87 b 265 1103 301 238 265 1103 b 378 1160 265 1158 340 1160 z "},"≈":{"ha":917,"x_min":0,"x_max":0,"o":"m 863 690 b 629 579 863 690 765 579 b 457 626 567 579 511 603 b 288 674 403 650 349 674 b 54 563 151 674 54 563 l 54 382 b 288 493 54 382 151 493 b 460 446 351 493 406 469 b 629 399 514 422 568 399 b 863 510 765 399 863 510 z m 863 365 b 629 254 863 365 765 254 b 457 301 567 254 511 278 b 288 349 403 325 349 349 b 54 238 151 349 54 238 l 54 57 b 288 168 54 57 151 168 b 460 121 351 168 406 144 b 629 74 514 97 568 74 b 863 185 765 74 863 185 z "},"≠":{"ha":917,"x_min":0,"x_max":0,"o":"m 774 733 l 617 733 l 540 615 l 92 615 l 92 432 l 422 432 l 338 301 l 92 301 l 92 118 l 219 118 l 143 0 l 300 0 l 376 118 l 825 118 l 825 301 l 494 301 l 579 432 l 825 432 l 825 615 l 697 615 z "},"≡":{"ha":833,"x_min":0,"x_max":0,"o":"m 746 703 l 86 703 l 86 547 l 746 547 z m 746 186 l 86 186 l 86 31 l 746 31 z m 746 444 l 86 444 l 86 289 l 746 289 z "},"≤":{"ha":917,"x_min":0,"x_max":0,"o":"m 825 938 l 92 681 l 92 482 l 825 226 l 825 424 l 308 581 l 825 739 z m 825 183 l 92 183 l 92 0 l 825 0 z "},"≥":{"ha":917,"x_min":0,"x_max":0,"o":"m 92 938 l 92 739 l 608 581 l 92 424 l 92 226 l 825 482 l 825 681 z m 825 183 l 92 183 l 92 0 l 825 0 z "},"⌂":{"ha":833,"x_min":0,"x_max":0,"o":"m 417 782 l 104 431 l 104 0 l 729 0 l 729 431 z m 417 592 l 593 394 l 593 110 l 239 110 l 239 394 z "},"⌐":{"ha":917,"x_min":0,"x_max":0,"o":"m 847 681 l 78 681 l 78 214 l 292 214 l 292 465 l 847 465 z "},"⌠":{"ha":833,"x_min":0,"x_max":0,"o":"m 604 1169 l 497 1169 b 301 1014 403 1169 301 1121 b 318 -347 301 910 310 281 l 511 -347 b 492 1018 500 336 492 1018 b 604 1075 492 1074 567 1075 z "},"⌡":{"ha":833,"x_min":0,"x_max":0,"o":"m 322 1178 b 342 -187 333 494 342 -187 b 229 -244 342 -243 267 -244 l 229 -339 l 336 -339 b 532 -183 431 -339 532 -290 b 515 1178 532 -79 524 550 z "},"":{"ha":463,"x_min":0,"x_max":0,"o":"m 321 -82 l 140 -82 l 140 -243 l 210 -243 l 153 -371 l 246 -371 l 321 -233 z "},"ﬁ":{"ha":926,"x_min":0,"x_max":0,"o":"m 374 1024 b 106 764 215 1024 106 964 l 106 733 l 11 733 l 11 546 l 106 546 l 106 0 l 382 0 l 382 546 l 507 546 l 507 733 l 382 733 l 382 763 b 457 836 382 814 396 836 l 507 836 l 507 999 b 374 1024 472 1013 410 1024 z m 842 733 l 565 733 l 565 0 l 842 0 z m 842 1007 l 565 1007 l 565 819 l 842 819 z "},"ﬂ":{"ha":926,"x_min":0,"x_max":0,"o":"m 374 1024 b 106 764 215 1024 106 964 l 106 733 l 11 733 l 11 546 l 106 546 l 106 0 l 382 0 l 382 546 l 507 546 l 507 733 l 382 733 l 382 763 b 457 836 382 814 396 836 l 507 836 l 507 999 b 374 1024 472 1013 410 1024 z m 843 1007 l 567 1007 l 567 0 l 843 0 z "}}}
